<?xml version="1.0" standalone="no"?>
<!DOCTYPE svg PUBLIC "-//W3C//DTD SVG 1.1//EN" "http://www.w3.org/Graphics/SVG/1.1/DTD/svg11.dtd" >
<svg xmlns="http://www.w3.org/2000/svg">
<metadata></metadata>
<defs>
<font id="skinnyserifregular" horiz-adv-x="500" >
<font-face units-per-em="2048" ascent="1638" descent="-410" />
<missing-glyph horiz-adv-x="508" />
<glyph horiz-adv-x="2048" />
<glyph horiz-adv-x="2048" />
<glyph unicode="&#xd;" horiz-adv-x="508" />
<glyph unicode=" "  horiz-adv-x="508" />
<glyph unicode="&#x09;" horiz-adv-x="508" />
<glyph unicode="&#xa0;" horiz-adv-x="508" />
<glyph unicode="0" horiz-adv-x="645" d="M100 816q2 3 2 14v10q0 7 -2 10q4 45 16 272h-2q16 137 50 268q11 67 50 126q58 80 134 80l18 -2l12 2q44 0 80 -36q33 0 66 -108l18 -44l-2 -10q6 -20 18 -144q2 0 2 -4l-2 -8q0 -1 2 -12q-2 -14 -2 -16q2 -18 2 -22q-2 -10 -2 -12l2 -10l-2 -24q0 -2 2 -2l-2 -10v-56 q0 -23 -2 -70h2q-2 -4 -2 -6q0 -162 -50 -568l-50 -320q-18 -119 -62 -208q-44 -94 -78 -94q0 -5 -56 -12q-94 14 -100 32q-26 26 -40 100q-14 104 -14 164h-2q0 2 2 2q-2 73 -2 110v28q0 5 -2 8q2 4 2 8v54q0 8 -2 16l4 62l-2 18q2 47 2 70l-2 18l2 8l-4 122q0 5 2 8 q-2 22 -2 38v132q0 7 -2 18zM162 144q11 -270 42 -298q10 -6 16 -6h4q2 0 2 2l4 -2q72 0 102 78q40 71 58 178q16 70 28 170q2 0 2 8v6q0 2 -2 2q62 414 62 552v4q4 19 4 22q4 111 4 134q0 3 2 20h-2q2 4 2 6q0 31 -2 36q2 30 2 56v102q-10 154 -28 204q-30 84 -42 96 q-8 0 -32 20h-6l-34 -6q-8 3 -12 10v12q-29 0 -84 -100q-25 -62 -34 -124q-42 -153 -42 -298q-1 0 -6 -68h2l-2 -4q-6 -94 -6 -170v-34q0 -2 2 -2q0 -2 -2 -2q0 -7 2 -18q-2 -62 -2 -108l2 -4q-2 -3 -2 -8v-4q0 -14 2 -16q-2 -14 -2 -16q2 -84 4 -90q-2 -22 -2 -40v-70 q0 -14 -2 -44h2l-2 -4v-14q0 -2 2 -2l-2 -4v-128q0 -19 -2 -34z" />
<glyph unicode="1" horiz-adv-x="404" d="M54 1035v2q5 3 19 22q19 8 24 31q34 81 54 155q46 142 46 149q0 2 16 50h-2q10 21 29 152q0 1 -1 5l3 17q-2 19 -2 35v3q0 4 -1 7q13 29 41 29q0 2 2 2q33 -9 33 -26v-2q-7 -20 -12 -103l1 -12l-1 -16q1 -15 1 -17l-1 -16q1 -14 1 -22l-1 -10q1 -38 3 -38l-2 -12v-109 l2 -10q-2 -3 -2 -9q0 -10 2 -31l-2 -12l2 -12l-2 -21q0 -2 2 -14q-2 -7 -2 -14l2 -3l-2 -4q0 -4 4 -22q0 -2 -2 -5q2 -12 2 -14l-2 -17l2 -17q0 -5 -2 -14l3 -45l-1 -12q1 -24 1 -33q0 -4 -1 -7q1 -9 1 -15q0 -42 -3 -85l2 -3l-2 -11v-8q0 -7 2 -16q-4 -8 -4 -17h2l-2 -4v-1 q0 -6 2 -6l-2 -8v-11q0 -8 2 -17q-3 -18 -3 -22q0 -2 1 -5q-1 -10 -1 -14q0 -13 1 -19l-3 -90l2 -9q-2 -14 -2 -22q0 -2 2 -5q-2 -7 -2 -12q0 -14 2 -23l-4 -58h2l-2 -4v-26q0 -1 2 -1q-3 -7 -5 -54l1 -10q-1 -24 -1 -31h1l-1 -4v-27q0 -2 1 -2l-1 -4v-10q0 -8 -2 -17l2 -9 l-2 -12l2 -24l-2 -16l2 -7l-2 -10q2 -26 2 -48v-14q0 -8 -2 -17q2 -7 2 -16v-15q0 -2 1 -2l-1 -4v-8q0 -2 1 -2q-1 -3 -1 -5q0 -9 1 -16q-1 -11 -1 -19q0 -7 1 -10q-1 -15 -1 -24v-10q0 -18 1 -44q-1 -6 -1 -13l1 -4l-3 -21q0 -5 2 -12l-4 -98h2q-1 -3 -4 -21q0 -1 2 -10 l-2 -12q2 -21 2 -31q-2 -12 -2 -14q9 -6 9 -19q-2 -9 -2 -10l7 -45q6 -24 35 -24q0 -2 -2 -6l2 -12q0 -4 -9 -8l-33 5q-2 -7 -5 -7q-17 2 -26 2q-8 -5 -14 -5q-7 0 -19 1l-3 -1q-33 6 -33 17q0 7 35 38l1 3l-3 61q2 9 2 17l-2 3q2 7 2 12q0 10 -2 28q2 9 2 19l-2 3q2 2 3 28 q0 2 -1 5l3 59q-2 3 -2 5q4 18 4 31q-2 42 -2 47l2 8q-2 9 -2 18v1q0 9 2 18q-2 7 -2 12q4 18 4 19l-4 1q0 4 2 19q0 3 -2 25l2 12l-4 43q2 6 2 14v5q0 6 -2 8l2 11v2q0 16 -2 29q2 9 2 19q0 2 -2 5l2 10v7q0 8 -2 18q2 6 2 15v2q0 1 -2 1q0 2 2 2l-2 21v10q0 14 2 37l-2 3 q2 12 4 60l-2 4q2 19 4 24l-2 7q2 22 2 26l-2 7q2 3 2 8l-2 4q2 3 2 7q0 5 -2 8q3 26 3 31q0 2 -1 2l3 28q-3 7 -3 10q1 17 1 26h-1l1 3v26q0 2 -1 2l1 3v25q0 3 -1 7q1 3 3 25q0 2 -2 6q2 11 2 19v5q0 5 -2 5l2 9v39q0 22 4 45q0 2 -2 2l2 8v26q0 10 1 25q-1 5 -3 5l3 26 q-1 9 -1 15l1 17q-1 10 -1 16q0 4 1 14q-1 10 -1 24l1 10q-1 19 -3 19l2 4q0 7 -2 22l2 10q-2 17 -2 31v7q0 4 -2 7q2 3 2 7t-2 7q0 2 2 2q-2 17 -2 26v22q0 4 -2 7q2 3 2 7v9q-5 32 -17 32q-8 0 -36 -101q-23 -54 -31 -94q0 -17 22 -39v-4q0 -2 -126 -3z" />
<glyph unicode="2" horiz-adv-x="600" d="M80 -208q13 54 13 64q5 18 5 24l-2 4q5 19 10 49h-2q3 15 10 100l-2 8q0 36 45 250q5 14 16 75q2 0 3 7q-1 6 -1 11q11 43 17 83q3 10 23 127q6 47 12 72l-1 3q26 145 61 298q30 139 77 273q0 4 65 187q7 23 7 26l-2 3q2 12 7 21q0 1 -2 10q3 10 3 14v3q0 2 -1 2l1 3v11 q0 24 -3 24l2 4v1q-5 53 -24 53h-15q-61 -17 -93 -59q-12 -9 -25 -35q-13 -11 -42 -66q-19 -38 -19 -40q-16 -40 -16 -47v-17q3 -12 4 -34q-3 -8 -3 -11q1 -8 26 -20l1 -3q-1 -13 -11 -13q-17 7 -24 7q-44 -3 -49 -3q-6 0 -28 1l-3 -1q-4 0 -8 8q0 9 24 21q0 2 8 12v7l-5 9 q2 9 2 15v9q10 5 18 37q0 35 36 88q0 18 82 122q65 50 103 50q43 6 45 8q33 -12 33 -14q18 -6 26 -28q10 -31 14 -61v-3q0 -6 -1 -14q1 -8 3 -8l-2 -3v-26q0 -5 -3 -23h2q-23 -86 -63 -185q-14 -50 -41 -126q-37 -114 -69 -275q-33 -122 -58 -310q-14 -58 -24 -126 q-7 -16 -18 -88l-21 -92l2 -3q-29 -121 -38 -180l1 -3q-5 -13 -5 -24q0 -1 2 -1l-2 -4v-4q0 -8 -1 -16l1 -8q-3 -14 -3 -18q0 -2 2 -2l-8 -78h1q-3 -13 -9 -53l1 -3q-4 -20 -4 -24h1l-5 -20q4 -3 7 -3l88 19l88 26q5 4 37 10q24 29 24 54v15q0 3 3 3h2q22 0 22 -44l-1 -3 q3 -45 11 -61q0 -15 -72 -22q0 -3 -29 -8q-62 -21 -160 -42q-16 -3 -31 -17l-8 -2q-15 2 -32 19q-5 0 -8 15v9z" />
<glyph unicode="3" horiz-adv-x="542" d="M98 1447q0 10 11 10q6 -5 9 -5q42 30 120 59q15 9 87 33q63 25 107 51h23q16 0 22 -23q-13 -16 -42 -106q-57 -141 -104 -281q0 -5 -31 -106q-36 -144 -51 -199q-52 -189 -52 -211q4 -33 21 -33q5 -4 18 -6q43 11 59 17q42 0 58 -42q36 -80 36 -96q1 -4 4 -37l-3 -51 q0 -2 2 -2q0 -3 -5 -28q0 -3 2 -3q-11 -164 -41 -325q-23 -106 -51 -158l-36 -70q-33 -44 -60 -44q0 -1 -2 -1q-49 11 -68 40q-21 30 -30 79q2 3 2 7q0 1 -2 4q0 15 25 20l34 14q14 0 14 -12q-8 -11 -12 -40l1 -7l-1 -7q10 -45 20 -50q37 0 96 155q26 80 39 176h-2 q11 59 11 84v3q0 1 3 12v11q5 28 10 98q0 2 -2 2q6 51 6 85l-1 11l1 3q0 48 -26 93q0 12 -15 25q-69 -18 -109 -40q-10 -3 -28 -28q-2 0 -5 -2q-21 0 -43 28q0 4 -2 6q13 19 23 86q33 145 52 211q11 36 59 225q54 189 110 325q19 43 19 78q0 18 -16 31h-1q-72 -20 -164 -65 q-29 -23 -40 -60q-5 -15 -14 -27q-2 -25 -9 -25h-6l-8 1v16q-17 59 -22 91z" />
<glyph unicode="4" horiz-adv-x="508" d="M53 602q0 12 24 39q17 68 69 226q0 8 23 77q31 97 70 183q79 201 94 273q22 87 22 121q4 53 8 60q31 17 49 17q0 2 1 2h2q3 -6 22 -9q11 -11 11 -19q0 -5 -5 -21q6 -35 9 -36q-3 -7 -3 -16q3 -12 5 -12q-4 -10 -6 -36q-5 0 -7 -33h2l-6 -19l1 -10l-3 -48h2l-2 -4v-4 q0 -2 2 -2q-2 -3 -2 -5q0 -11 -3 -36h2q-2 -2 -4 -22l2 -6q-3 -11 -6 -41l1 -11q-3 -25 -8 -44l2 -11q-2 -26 -6 -41q0 -3 1 -3q-3 -37 -3 -60q0 -1 2 -1l-2 -10q0 -33 -5 -105h2q-2 -3 -3 -24l1 -6q-1 -9 -1 -13l1 -3q-1 -3 -1 -4q1 -9 1 -10l-3 -12q2 -9 2 -10 q-3 -11 -3 -19q0 -1 1 -1l-1 -3v-7l-2 -19h2q-2 -1 -3 -19q0 -1 1 -9q-1 -8 -3 -8q2 -21 2 -31v-40q0 -10 23 -23q0 -2 6 -10v-3q-8 -14 -26 -14v-1q0 -13 1 -22l-1 -11q1 -14 1 -18q0 -3 -1 -6q1 -11 1 -17v-15q0 -4 2 -4l-2 -8v-46q0 -15 -3 -15l2 -8q0 -26 -3 -49 q0 -2 1 -5q-1 -25 -5 -47q0 -2 2 -2l-2 -7v-4q0 -17 -3 -37l2 -3l-3 -19l1 -7q-1 -10 -1 -20q0 -2 1 -2q-3 -6 -6 -77h2q-2 -3 -4 -23q2 -3 2 -5q-3 -6 -3 -12v-5q0 -4 1 -7q-2 -1 -3 -22l2 -3q-3 -5 -5 -48q0 -2 2 -2l-4 -25q2 -3 2 -5q-5 -21 -6 -69l1 -3q-3 -6 -3 -17v-7 q0 -1 2 -1l-2 -3v-15l5 -17l-2 -8q0 -17 13 -74q11 -41 39 -70v-2q0 -5 -9 -9q-1 0 -10 1q-1 0 -12 -1q-11 3 -19 3h-6q-10 -11 -18 -11q-10 4 -20 6q-11 -2 -17 -2q-46 0 -46 15q31 50 31 77q10 17 16 73q5 1 5 13q0 5 -2 8l2 9v5q0 7 -2 13q3 16 3 20q0 2 -1 2q7 87 9 97 q-1 8 -1 10t1 15l-1 10q3 54 6 74l-2 3q2 8 2 14v5q0 1 -2 1q4 8 5 49q0 2 -1 2l1 7v13q0 13 3 28q0 2 -1 5q1 11 1 17l-1 11q3 16 3 18l-2 9q3 6 3 14q0 2 -1 5l3 22l-2 8q2 13 2 22h-2q2 3 2 5q0 31 3 59l-1 3l1 4l-1 11l1 14q0 3 -1 6q1 11 1 17q0 38 -3 63q2 6 2 11 q-3 7 -5 7h-2q-169 -24 -204 -37q-8 -1 -28 -22q-14 -1 -16 -1q-33 8 -33 15zM157 690q9 -27 38 -27h15l10 1q2 -1 6 -1q27 5 30 8l3 -2q52 6 52 21q15 7 30 55q3 0 3 17q0 1 -2 1l2 8v19q0 9 1 22l-1 3q3 8 6 76h-1l1 3v28q0 8 2 16l-2 9q2 14 2 18q0 1 -2 4q2 23 5 46 l-2 6l2 14q0 4 -2 13q2 36 5 46q0 1 -2 4l10 98h-2q3 19 7 58q-3 19 -5 19l1 6q0 3 -3 25q2 3 2 5h-5q-8 -30 -41 -113q-23 -67 -48 -126q-34 -72 -63 -179q-5 -1 -14 -44q-38 -105 -38 -146v-11z" />
<glyph unicode="5" horiz-adv-x="494" d="M74 -316q2 17 12 25q1 9 1 13q0 46 1 60q4 29 12 29l4 1h1q12 0 12 -22v-4q3 -28 17 -39q24 -33 64 -52h3q33 0 85 31q28 18 30 57q0 8 3 16q-1 5 -1 12v9q0 1 -1 1l1 4v12q0 13 -2 13q1 2 3 2q-1 26 -2 27q0 1 1 1v34q0 51 2 96l3 16q-2 5 -2 20q0 10 1 24l1 10 q0 2 -2 2q2 11 3 11v19l3 45q0 7 1 16v15q1 11 2 21v5q1 14 2 22l1 21q0 2 -1 2q1 2 4 19l-1 14q5 20 9 83q-4 42 -34 43h-2q-10 0 -49 -9q-44 -11 -66 -28q-7 -23 -35 -23h-11q-21 8 -21 11q-12 1 -12 18v3q3 3 9 26q1 28 1 50q0 42 -3 57l3 7q-1 16 -1 27h-1q0 2 1 2 q-1 37 -1 62q0 26 1 41l3 70q0 2 -2 3l3 2q0 10 -1 25l2 7l-1 7q0 3 2 6q1 35 1 62q0 28 -1 47l1 7q-2 14 -4 84q1 2 3 10q-2 13 -3 38l2 8q-3 13 -3 31q0 9 1 19h-2q0 1 2 1q-1 26 -2 27q1 2 2 2q-2 10 -2 27q0 12 1 26h-1l1 3q0 14 -2 14l2 3l1 15q0 1 -2 1l2 4 q-1 24 -3 24l1 3q-2 19 -2 28q1 4 3 13q-1 4 -1 9v10q0 2 -1 2q0 2 1 2v24q0 1 -1 1q0 2 2 2l-1 19v6q0 2 -2 3l2 2v5q0 1 -1 2l2 3q-5 114 -9 133q1 29 11 29h1q1 9 33 15q0 8 28 13q4 0 7 -2l203 8q13 0 13 2q13 -5 16 -6h2q10 0 18 20q7 3 10 3q8 -4 8 -6q0 -17 2 -17 l-2 -4l-1 -4q0 -2 2 -2l-2 -3v-32q-3 -6 -3 -11q2 -19 2 -23l-3 -11q2 -6 2 -11q-3 -7 -3 -8q2 -13 2 -24v-5q0 -1 2 -1q-4 -28 -15 -28h-1q-14 1 -21 44q-16 35 -91 35h-26q-99 -7 -114 -55q-10 -38 -11 -57l1 -11q-1 -3 -1 -5v-2q0 -3 2 -9q0 -2 -2 -2q1 -16 1 -24l-2 -21 q0 -1 1 -1l-1 -3v-2q0 -4 1 -6l-1 -4v-17l-1 -5q0 -2 2 -2l-2 -3q1 -14 3 -14l-2 -3v-5q0 -2 2 -2q0 -1 -2 -1l1 -19v-5q0 -2 1 -2l-2 -3q0 -27 -1 -41q0 -2 2 -2q0 -2 -2 -2q1 -19 1 -33q0 -13 -1 -21h2l-2 -3q3 -8 3 -48v-22h1l-1 -4v-4q0 -2 1 -2q0 -1 -1 -1q1 -14 1 -27 t-1 -25q0 -1 2 -4q-2 -3 -2 -5v-2q0 -3 2 -8q0 -1 -1 -4q1 -15 1 -33t-1 -40h2l-2 -3v-5q0 -2 2 -2q0 -1 -2 -1v-20l-1 -24q0 -1 2 -1l-2 -3v-5q0 -2 2 -2q-3 -3 -3 -5v-16q0 -16 1 -28q-1 -11 -2 -21l-1 -11q0 -2 1 -2q0 -1 -1 -1v-19l-2 -48q-1 -17 -1 -29q0 -11 1 -16 l-1 -3q1 -5 1 -10q0 -4 -1 -8v-5q0 -1 2 -1q0 -2 -2 -2l1 -19v-5q0 -1 1 -1l-2 -3q3 -75 20 -76q0 -2 16 -8q89 17 102 27q36 19 51 19h1q11 0 16 2q27 -8 34 -20q7 -1 16 -32v-2q-23 -28 -25 -52q0 -10 -3 -24h2q-4 -7 -5 -25l-1 -15q-5 -21 -12 -61l-2 -28q0 -7 -3 -18 q2 -3 2 -6q-2 -10 -4 -10q1 -11 1 -18q-3 -56 -7 -105q-1 -31 -3 -76h2l-2 -4l-3 -60q0 -2 2 -2l-3 -3q0 -1 2 -13l-3 -7q2 -26 2 -71q-3 -3 -3 -6q2 -12 4 -12q0 -1 -2 -1q1 -91 12 -109q-12 -26 -27 -26h-1q-28 -28 -57 -34q-20 -11 -91 -23l-16 1l-16 1v-1q-34 5 -66 18 q-36 16 -36 24z" />
<glyph unicode="6" horiz-adv-x="450" d="M52 68l1 6l-1 19q0 2 1 25q0 1 -1 1l1 11v27q0 6 2 17q-2 3 -2 5q0 1 2 9q0 1 -2 12l2 11l-2 3q2 4 3 14q-1 22 -3 22l2 8v6q0 10 1 20l-1 7l9 102q12 119 25 174q0 2 -2 2q11 41 30 179q8 46 33 229q1 0 4 21h-1q12 55 17 87q9 70 18 100q0 2 -1 2q9 36 28 140l26 124 v16q1 7 3 7q-3 34 -3 49q-23 34 -23 35q-4 0 -9 8q9 18 18 20l8 -1l19 1q3 -1 4 -1l105 8q23 0 23 -21q-45 -21 -67 -81q-9 -27 -25 -46q-12 -39 -12 -50v-16q-6 -32 -19 -66q-9 -41 -9 -44q1 -3 1 -5q-1 -3 -1 -4q1 -3 1 -5q-7 -5 -34 -124l2 -7l-11 -53q1 -2 1 -6l-4 -15 q0 -2 1 -2q-12 -56 -25 -99l-3 -30q0 -2 2 -5q-34 -218 -34 -225v-3q4 0 4 -3q-4 -4 -6 -4l2 -7q-12 -44 -22 -123v-5q1 -3 1 -5q-6 -30 -14 -54q0 -4 -3 -14l2 -6q-6 -30 -8 -48q3 -12 3 -14h28l23 -4v2q46 -12 116 -86q44 -55 56 -96q2 0 14 -42q2 -12 6 -19l-2 -11 q10 -22 10 -29v-17q6 -19 6 -50q0 -3 -3 -9l1 -8q-1 -14 -1 -17l1 -8q-1 -6 -1 -12v-2q0 -2 1 -2l-1 -3v-46q0 -9 -2 -22l2 -3q-16 -92 -35 -136q-5 -31 -43 -79q-19 -23 -70 -53q-5 0 -11 -1q-26 0 -76 54q-41 47 -41 83q-14 39 -20 73h-1l1 3q-6 39 -9 78q1 2 1 6 q-3 5 -3 12v11q0 2 -1 2l1 3v14q0 1 -1 1q0 2 1 2l-3 43l2 7zM95 82l5 -118q-2 -9 -2 -13l6 -24l-1 -8q1 -59 23 -122q0 -20 20 -54q30 -41 46 -48q63 26 93 102q31 91 31 144q-2 8 -2 17q4 16 4 21v13q0 5 -2 14q2 3 2 5l-4 35l2 8q-18 128 -39 165q-25 58 -81 110l-31 19 q-8 3 -11 3q-20 0 -42 -34q-4 -8 -6 -28q-3 -1 -6 -8q0 -1 1 -4q-1 -9 -1 -14h1q-1 -3 -1 -5q0 -25 -3 -50l1 -3l-1 -9v-3q0 -5 1 -5l-3 -33l3 -6q-1 -57 -3 -67z" />
<glyph unicode="7" horiz-adv-x="546" d="M46 524q0 13 14 22h18q75 0 158 50q0 2 14 14v12l26 212q2 0 2 6q0 2 -2 2q54 440 88 582l32 142q-2 8 -12 8l-26 -6l-4 2q-12 -4 -12 -6l-12 2q-62 -12 -122 -18l-10 2l-46 -12h-20q-20 11 -20 28q0 23 32 34q1 -4 4 -4l10 2l16 -4l308 46l2 -4q0 -21 -32 -138l-34 -152 q0 -4 -6 -30l2 -4q-26 -147 -62 -412q-40 -367 -72 -538q0 -14 -10 -48v-8q0 -41 -22 -126q-14 -76 -42 -362q-6 -12 -20 -118h-4q-53 0 -60 28v2q24 102 36 252q13 161 38 274l42 270l-4 2h-4q-6 0 -46 -14q-58 -9 -66 -16h-26q-46 0 -46 26z" />
<glyph unicode="8" horiz-adv-x="554" d="M54 1058q0 2 2 2q-2 27 -2 38q0 134 48 262q33 75 100 156q49 49 96 66q53 28 112 28q50 -11 50 -28q6 0 16 -52l-2 -10q4 -2 6 -2q4 2 6 2v-2q-2 -17 -2 -28q0 -2 2 -2q-5 -19 -14 -120q-20 -116 -30 -192v-2h2q-32 -183 -78 -342q0 -9 -52 -244q0 -12 -30 -136 q-2 -3 -2 -10q70 -217 70 -252q20 -77 24 -156q2 0 2 -24v-38q0 -56 -24 -154q-34 -66 -64 -88q-24 -30 -74 -30q-28 0 -86 24q-56 50 -56 108q0 11 -2 18q0 51 32 172q0 12 52 214q22 102 32 136l2 10v2q0 2 -2 2q20 54 20 76q-55 130 -90 224q-30 72 -44 166 q-18 99 -18 202zM128 1020q2 -148 46 -298q18 -61 42 -72h2q13 0 44 40q0 9 40 176l50 216q16 79 28 204q24 91 24 196q0 3 -4 12q4 7 4 10q0 44 -22 52h-14q-61 -24 -86 -52q-52 -53 -90 -122q-34 -60 -56 -178l-8 -96v-12q0 -6 2 -6l-2 -10v-60zM144 -128q0 -7 2 -10 q-2 -14 -2 -22v-8q0 -66 30 -76q0 -4 22 -6q50 16 84 80q30 58 30 188q-5 120 -20 120q-22 58 -44 66h-4q-15 0 -30 -38q-50 -201 -68 -294z" />
<glyph unicode="9" d="M58 888l2 7l-2 13q0 3 2 3l-2 13v14q0 14 2 37q-2 3 -2 5q2 7 2 12q0 4 -2 4q7 96 27 180q2 3 10 43q40 134 110 221q51 71 113 84l123 11l2 -4q-94 -1335 -94 -1669q0 -104 9 -112q4 -9 6 -9q-5 -12 -18 -12q-19 4 -111 5q-39 0 -39 18v2q41 36 62 109q0 10 3 27l43 827 q0 9 3 21q0 4 -2 7l6 53q0 2 -2 2l3 37h-1q3 7 3 19l-3 2q-25 -93 -83 -150q-24 -20 -52 -25q-3 0 -3 -2q-66 0 -83 50q-19 14 -28 124zM122 902q5 -97 16 -132q13 -34 22 -39h8q53 32 91 170q27 94 57 228q12 30 21 187q6 26 11 88l-2 4q4 10 7 35l-2 4q4 9 4 14l-2 3l2 11 q0 12 -16 12q-50 -25 -67 -58q-40 -45 -73 -115q-47 -95 -72 -265q0 -2 2 -5q-6 -45 -6 -55h2l-2 -4v-14q0 -9 -1 -16q1 -9 1 -17v-4q0 -7 -1 -19q1 -4 1 -6z" />
<glyph unicode="A" horiz-adv-x="400" d="M-23 -76q0 5 16 30q14 20 28 124q2 14 2 22q-2 0 -2 2q14 0 18 136q2 0 2 24h-2q4 19 6 64h-2l2 4v8q6 53 6 66l-2 4q2 16 8 118q0 2 -2 2l12 146h-2q24 219 76 770q0 46 -50 74q0 4 -2 4q0 12 65 12q37 0 93 -4q5 -10 6 -10q0 -6 -36 -38q-12 -16 -12 -50 q16 -181 62 -550q2 -35 8 -84q-2 -3 -2 -8q10 -65 20 -182l-2 -14q1 0 6 -6l-2 -8q13 -104 20 -134l-2 -4v-10q6 -17 10 -60l-2 -10l4 -10l-4 -10q13 -21 24 -114q4 -14 22 -126q-2 -4 -2 -6q12 -39 24 -118q25 -50 42 -50v-2q0 -12 -56 -12q-34 0 -88 4q34 58 34 126 q-12 91 -40 238q0 19 -22 152q-11 22 -62 22h-36q-11 0 -44 -38l-18 -70q0 -8 4 -8q-2 -32 -8 -36q0 -3 6 -6l-6 -14q4 -8 4 -14q-6 -72 -12 -88q4 -1 4 -4l-12 -122q2 -51 2 -60q13 -48 44 -74v-6q0 -6 -49 -6q-30 0 -77 2h-12q-3 0 -10 10v2zM117 550q0 -42 12 -42h12v-10 q1 -4 4 -4q92 5 92 22q6 13 6 28v18l-46 438q-12 80 -20 88h-2q-10 0 -20 -100q-9 -124 -16 -124l2 -12q-18 -201 -22 -214l2 -8q-4 -20 -4 -36v-44z" />
<glyph unicode="B" horiz-adv-x="395" d="M61 1482q5 10 20 10l20 -2q20 4 36 4h12q63 0 80 -52q19 -51 66 -140q70 -227 70 -304q0 -2 -2 -6q2 -17 2 -28v-6q0 -20 -2 -50l2 -12q-2 -10 -2 -20l2 -4q-3 -14 -10 -88q-31 -175 -84 -246q-7 -16 -46 -60v-6q98 -90 98 -112q20 -22 30 -110v-2l-2 -12v-18q0 -7 2 -10 q-9 -98 -30 -132q-30 -49 -74 -84l-60 -42q-15 -22 -26 -22q-54 0 -54 30h-2l2 4v8q0 2 -2 2q8 11 8 24l2 420q0 18 2 40q-2 8 -2 14q0 5 2 8l-2 62q0 19 2 38q-2 11 -2 20q0 7 2 18l-6 134q2 14 2 22q-8 90 -8 644q0 2 -2 2l2 4v30q-14 18 -42 18q-4 7 -4 12zM165 956 q6 -120 10 -322v-2q0 -22 -4 -38q4 -34 20 -34h2q25 10 30 28q21 18 58 156q18 111 18 178l-2 10l2 12q0 136 -38 242q-29 108 -48 138q-5 0 -24 38q-2 0 -6 2q-16 -18 -16 -60q0 -2 2 -2l-2 -10v-236q-2 -33 -2 -64q2 -25 2 -26zM171 56q1 0 22 -10h2q54 23 72 66 q20 39 20 120q0 93 -24 106q0 18 -30 46q-33 36 -46 36q-9 0 -14 -20v-290q-2 -24 -2 -54z" />
<glyph unicode="C" horiz-adv-x="388" d="M42 890q2 10 2 24q0 236 80 438q28 50 66 92q0 9 30 14q64 45 80 94q3 0 12 4q20 0 24 -120q-13 -82 -28 -82h-6q0 7 -14 28q0 35 -32 40h-2q-62 -38 -102 -186q-42 -170 -42 -304v-8q0 -8 -2 -22q2 -4 2 -6q-2 -17 -2 -20q0 -4 2 -22l-2 -20q2 -34 2 -66q0 -7 2 -10 l-2 -12v-76q0 -12 2 -32l-2 -4q2 -20 2 -32q0 -95 4 -130l-2 -4q4 -80 8 -124q-2 -14 -2 -16q13 -168 24 -244q11 -77 32 -104q10 -14 12 -14h8q28 0 56 54q11 42 22 42q15 0 24 -80q5 0 10 -72q0 -3 -8 -10q-13 0 -18 34q-12 9 -12 10q-37 -30 -54 -30q-62 0 -108 84 q-13 0 -38 198q-26 287 -26 680z" />
<glyph unicode="D" horiz-adv-x="364" d="M18 -63q11 14 18 144l16 1204q0 261 36 261q0 1 12 6q40 -10 40 -21q0 -4 24 -54q40 -81 40 -102q56 -198 88 -355q16 -69 16 -182q0 -448 -86 -709q-41 -128 -78 -169q-54 -71 -84 -71h-4q-38 23 -38 46v2zM92 71q4 0 8 -19h12q32 12 88 246q40 217 40 292q0 2 -2 2 q3 0 6 161l-2 4q2 0 4 50q-2 59 -4 59q0 2 2 2q0 85 -24 187q-14 76 -42 165l-34 84q0 21 -16 23q-10 -4 -32 -1202h2q-4 -19 -6 -54z" />
<glyph unicode="E" horiz-adv-x="302" d="M37 1351l2 12q0 4 -2 8v28q0 118 8 119q0 7 94 9q39 1 95 1h3q27 0 39 -15q-13 -106 -26 -106q-8 0 -22 47q-8 17 -34 16q-13 0 -30 -4q-53 -14 -58 -74q-3 -29 -4 -62l19 -758l1 -9q9 -77 50 -77h1h1q0 -2 10 -2q33 24 46 59q4 1 4 2q9 -3 10 -7q0 -9 -1 -86t-11 -77h-4 q-6 0 -17 36q-23 25 -45 25h-2q-47 -12 -46 -71v-2q-7 0 -11 -339q11 -40 58 -40h2h4q52 3 51 43v1q7 19 18 19q14 -8 17 -106q0 -12 -108 -16h-17h-16q-76 0 -77 18v2q11 16 11 378q0 133 -2 312q-6 668 -11 716z" />
<glyph unicode="F" horiz-adv-x="300" d="M45 1457q2 0 2 43v33l-2 4q4 19 68 19q46 0 124 -10h1q15 0 20 -23q-2 -95 -15 -96q-15 0 -33 54q-26 29 -35 29q-23 3 -31 3q-16 -1 -27 -54q0 -2 2 -6q-2 0 -2 -41q0 -50 3 -163v-4q0 -8 3 -20q-2 -2 -2 -32l2 -5q-2 -11 -2 -41q0 -2 2 -2l-1 -15v-9q1 -19 1 -97 q0 -129 -3 -419q4 -37 5 -60q1 -17 32 -31q3 -2 8 -2q58 4 68 37q8 28 13 29h4q4 0 11 -26v-80l3 -11v-8q0 -41 -10 -42q-3 0 -25 31l-29 18q-56 -3 -59 -36q-22 -75 -22 -141v-16q1 -17 5 -45q-3 -8 -3 -16v-4q0 -2 2 -2l-2 -11l1 -8q0 -2 2 -2q-2 -5 -2 -7q3 -98 3 -162 q0 -97 -7 -118l-4 -2h-6q-48 0 -50 45q1 32 1 67q0 117 -8 266q1 27 1 28l-3 4q-1 45 -1 126q0 187 5 566z" />
<glyph unicode="G" horiz-adv-x="337" d="M37 386q2 77 4 91l-4 32q2 8 2 17v2q0 2 -2 2l2 4v22q0 11 2 19q-2 11 -2 21v15q0 18 2 38l-2 8q2 29 2 49v19q0 2 -2 2q2 4 4 23q0 3 -2 7l4 38q-2 11 -2 17q0 1 2 12l-2 9q2 8 2 17q0 2 -2 2l2 4v19q0 9 2 24q-2 4 -2 6q2 12 2 17q0 2 -2 6l2 13v15q0 7 -2 19l4 15 q-2 18 -2 29v4q0 46 6 66l-2 11l8 72q-2 3 -2 8l16 112q7 23 16 70q21 72 74 163q15 9 18 9l10 -3q20 3 36 11q2 0 2 -2l24 2h28q18 0 18 -15v-10q0 -10 -2 -22l2 -10l-2 -15q0 -2 2 -2q-4 -70 -22 -70h-2q-15 6 -30 68q-11 6 -22 6q-32 0 -78 -207q-8 -44 -14 -100h2 q-2 -3 -4 -21q0 -2 2 -6l-2 -13v-8q0 -3 2 -3q-6 -17 -8 -40q2 -15 2 -17q-4 -28 -4 -55v-4q0 -6 2 -6q0 -3 -2 -7q-2 -69 -2 -108v-8q0 -9 -2 -23q0 -3 2 -3l-2 -10v-61q0 -3 2 -3q-4 -9 -6 -48l2 -5q-4 -10 -4 -16q0 -3 2 -7q-2 -11 -2 -19q0 -2 2 -6q-2 -9 -2 -15 q0 -8 2 -8l-2 -22v-67l2 -13q-4 -13 -4 -55v-2q0 -9 2 -24q-2 -3 -2 -10l2 -11q91 10 132 32h20q6 -5 30 -15l14 -12v-5q0 -2 -2 -2l2 -4v-6q-6 -9 -6 -19v-45l2 -13q-2 -3 -2 -8q0 -6 2 -15q-2 -18 -2 -32v-12q0 -2 2 -2l-2 -5v-17q0 -2 2 -2q-2 -2 -4 -25h2q-4 -11 -4 -23 q0 -3 2 -3l-10 -120l2 -4q-4 -10 -4 -19q0 -3 2 -7q-14 -120 -26 -120q0 -15 -42 -28q-16 0 -38 2q-4 -2 -6 -2q-55 13 -72 36q-12 17 -16 42q-29 63 -40 178q-4 70 -6 70l2 8q0 13 -4 43l2 8q-4 49 -4 55q2 18 2 28zM111 280l4 -38l-2 -8q14 -193 42 -252q0 -11 32 -11 q14 9 22 60q5 0 10 63l-2 4q8 55 10 94q0 2 -2 2q5 89 8 89l-2 25v36q0 10 2 21q-4 29 -4 36h-4l-62 -13q-52 -39 -52 -108z" />
<glyph unicode="H" horiz-adv-x="462" d="M46 1503q1 18 33 21q19 5 32 11l10 3q23 -3 32 -7l48 5q13 -7 14 -13q-46 -61 -47 -94h2l-3 -4v-12q0 -2 2 -2q0 -2 -2 -2q8 -179 8 -213v-10q0 -2 2 -2q-2 -4 -2 -6q0 -3 3 -18l-2 -10q2 -42 6 -66l-3 -6l5 -90l-2 -4q1 -28 3 -28l-2 -4q0 -10 1 -20l-2 -8l4 -50 q0 -2 -2 -2l2 -10l-1 -16q0 -2 2 -2l-2 -4l-2 -60q0 -7 1 -18l-2 -4q1 -11 1 -20v-8q0 -9 -2 -12l1 -80q-2 -8 -3 -18l13 -43q10 -20 31 -21q0 -2 2 -2q42 3 43 27l1 16q0 7 -2 18q0 2 2 2q-1 24 -1 92l3 6q-2 13 -2 22l2 58q1 8 3 22l-2 4q3 3 3 8l-2 14l3 12q0 2 -2 2 l2 10l1 40v3q0 2 -1 5q2 3 2 8l1 22q0 10 2 17q-1 11 -1 21q0 9 4 43l-2 1l2 3l1 28q0 9 2 22q-1 4 -1 8q2 8 2 14h-2l2 4v8q0 5 -1 10l2 8q-1 11 -1 12l2 14l-2 4q0 4 2 4l-1 24l2 54l-1 12q2 4 2 10l1 18q0 5 -2 8q2 4 2 8v8q0 2 -2 2l3 4q0 10 -2 20q0 4 2 4q1 15 1 28 q0 82 -22 103q-8 21 -23 31q1 20 51 20h10q0 2 16 3l12 -2q6 3 10 3h6l20 -8l52 6l8 -13q-4 -12 -32 -38q-17 -18 -29 -79l-8 -8q2 -20 2 -53q0 -22 -1 -49l-2 -46q0 -11 -3 -28l2 -4q-2 -8 -3 -14q0 -2 2 -6l-2 -12v-2q0 -2 2 -2l-3 -4q2 -14 2 -22l-2 -4q1 -4 1 -8 q0 -6 -2 -14q0 -2 1 -12q-3 -31 -3 -46q0 -2 2 -6q-5 -10 -5 -14q3 -15 3 -20l-2 -20h2l-3 -4v-6q0 -13 -3 -26l2 -12q-5 -21 -5 -22q2 -6 4 -6l-5 -34q1 -10 1 -12q-3 -31 -3 -46q0 -2 2 -6l-6 -52q2 -4 2 -6l-3 -12q0 -2 2 -6q-2 -8 -3 -14l2 -4q-2 -3 -2 -8q0 -10 4 -10 l-2 -4l-1 -22v-5q0 -6 1 -13q0 -2 -2 -2l1 -24l-3 -92l2 -12q-3 -3 -3 -10l2 -10q0 -4 -2 -4l1 -24l-2 -40q0 -8 -2 -22l2 -4q-3 -3 -3 -8v-4q0 -2 2 -2l-2 -4v-12q-1 -9 -3 -20q1 -5 1 -10v-4q0 -7 -2 -18q1 -14 1 -24q-3 -17 -3 -21l2 -1l-2 -3v-10l-3 -24h2q-4 -8 -5 -14 q2 -6 4 -6l-2 -8q-5 -69 -5 -84q0 -2 2 -2l-3 -10l-2 -80q0 -5 1 -8q-2 -4 -2 -8v-6q0 -2 2 -2q-2 -4 -2 -6v-5q0 -43 35 -70q4 -7 4 -11q-8 -7 -23 -11q-1 0 -12 3q-46 -1 -46 -3l-4 2q-25 -1 -30 -1q-19 4 -19 9q18 32 28 79l-3 8l2 12v4q0 2 -2 2l2 4l1 4q0 8 -2 8l2 14 l1 20q0 10 3 20q-2 19 -3 24q2 4 2 8v2q0 6 -2 6l2 10l1 22q1 16 4 42q0 2 -2 2l2 10l1 24l3 24h-2l2 4l2 50q0 8 2 22l-1 4l2 12q0 2 -2 2l2 4l1 14q0 2 -2 2l2 4l1 38v5q0 40 -32 60h-6q-42 0 -43 -26q-5 0 -11 -40l-2 -52q0 -2 2 -2l-2 -4v-4q-1 -13 -3 -26l2 -8l-3 -10 q4 -3 5 -48q-2 -3 -3 -12l2 -4q-2 -4 -2 -8v-2q0 -5 2 -8l-3 -4l4 -76q-2 -4 -3 -8l2 -8l-2 -8q0 -5 3 -30q0 -4 -2 -4q-1 -31 -1 -56q0 -100 19 -113q0 -4 19 -23v-8q0 -3 -12 -7q-22 3 -38 3l-12 1l-45 -7q-6 0 -9 15q16 62 16 73q-3 7 -3 10q0 5 2 8q-1 14 -1 22l1 20 q0 2 -2 2q0 2 2 2q-1 49 -4 78l3 8q-3 37 -4 128l1 30v4q0 9 -3 20l2 10v2q0 2 -1 2l2 14l1 18q0 5 -2 8q2 4 2 6v56l2 4q-2 4 -2 6q1 3 3 20l-2 4q3 8 3 14l-2 4q2 4 2 10l-1 12l2 10q0 2 -2 6q0 2 2 6q-1 17 -1 28q1 7 3 10l-2 12l1 34q0 2 -2 2l3 4v14q0 2 -2 2q2 4 2 6 l-1 20q0 2 2 6q-1 14 -1 22l1 16q0 5 -2 8q2 4 2 8q1 8 1 19q0 12 -1 27l2 14q-2 42 -4 42l4 12q-1 8 -4 8l3 10v6q0 2 -2 2l2 4l1 10q0 5 -2 8q2 4 2 6q0 10 -4 10l2 4l1 4q0 8 -2 18q0 2 2 2q-1 55 -5 87l2 4q-7 191 -10 224l3 6q-7 206 -15 207q-41 37 -41 39z" />
<glyph unicode="I" horiz-adv-x="255" d="M28 -84l34 70l2 1444h-2q4 6 6 22l-2 8l2 12q-7 37 -22 52q-14 10 -14 12q0 9 14 18h160q12 -5 12 -8v-4q0 -17 -50 -40q-19 0 -30 -78l2 -4q-4 -1400 -4 -1408v-18q0 -4 2 -8q-2 -3 -2 -8v-8q27 -40 44 -52v-8q-3 -8 -95 -8h-41q-9 0 -16 14z" />
<glyph unicode="J" horiz-adv-x="693" d="M46 226q1 8 19 10q7 -6 17 -7q5 0 16 1l14 -3q19 3 40 3q10 0 21 -1t15 -13q-1 -6 -29 -36q0 -7 -7 -42l2 -4q-2 -4 -3 -8l2 -10l-3 -6q-1 -18 -1 -34q0 -86 19 -88h6q41 23 78 195q6 0 41 168q1 12 4 25q0 2 -2 3q8 33 16 103l-2 4q3 11 3 18l1 10q0 4 -2 8q3 3 3 8v4 q0 2 -2 2l3 4v13q0 1 -1 1l2 4l3 45q1 11 3 18v20l2 36q0 2 -2 2l3 4v10q0 2 -2 2l3 4v2q0 8 -1 16q0 2 2 6v22l1 16q0 5 -1 8l2 4q1 49 3 78l-1 10q0 2 2 2q1 32 1 55q0 35 -2 49q3 4 3 6q-1 8 -4 8q1 2 3 2q0 7 -2 37q2 3 2 5q0 26 -2 29l3 3q0 11 -2 35q2 3 3 5l-5 133 l2 4q0 42 -3 48l3 4v10q0 4 -1 6l2 8q-1 44 -3 44q3 4 3 6q0 30 -4 31l2 3l2 32q-6 39 -31 41q-62 -8 -79 -15q-16 -47 -23 -48h-4q-15 1 -17 27q-11 64 -28 106q0 6 15 13q50 -27 62 -28h6q102 14 142 24l28 -4q162 0 164 20q13 6 26 35q7 3 12 3h2q13 -1 13 -35v-14 l-3 -10q1 -11 1 -18q-3 -11 -3 -12q3 -11 4 -34q-4 -17 -16 -17h-2q-2 0 -30 24q-49 -4 -74 -4h-14l-18 1q-48 -16 -50 -56q-4 -1 -5 -4v-26l-2 -8l2 -32l-3 -8l4 -36l-3 -12l2 -32l-3 -8l3 -47q-3 -3 -3 -7l2 -9q-1 -2 -3 -5l4 -87q0 -2 -2 -2l2 -32l-2 -4v-5q0 -8 1 -25 q-2 -4 -2 -6q0 -4 2 -30l-2 -4v-11q0 -15 2 -15l-2 -4q0 -50 2 -50l-2 -4l-1 -8q0 -6 2 -6q0 -1 -3 -8q-1 -51 -2 -60l2 -4q-2 -3 -3 -8l-1 -24v-1q0 -1 1 -1l-2 -4l-1 -12q0 -2 2 -2l-5 -12q4 -5 4 -32q0 -2 -2 -2q1 -22 2 -28l-6 -24q1 -8 4 -8l-3 -12q-1 -37 -3 -66v-6 q-1 -8 -4 -22l2 -4q-2 -3 -3 -8v-2q0 -4 2 -8q-5 -8 -5 -11q2 -7 4 -7l-3 -4v-4q-1 -15 -5 -41l2 -4q-2 -4 -6 -24q0 -2 2 -2q-6 -31 -11 -78h2q-4 -17 -8 -25q0 -2 1 -6q-14 -85 -29 -127l2 -4q-33 -107 -48 -179q-63 -120 -90 -120h-1l-10 -1q-2 0 -6 2h-20q-25 8 -55 44 q-20 40 -20 77v10q0 3 3 20l-1 8l2 8l-2 28l3 12l-2 4q3 4 3 6v3q0 22 -16 52v1q0 15 -29 43q0 4 -2 5z" />
<glyph unicode="K" d="M40 -63q0 8 27 48q7 0 12 106q3 0 3 21q0 2 -2 2q12 140 12 253l-1 19q0 2 1 17q-4 163 -7 417q0 9 1 38q-1 10 -1 27q0 14 1 25q-1 25 -1 49v40q0 12 -2 14q2 12 2 19q0 66 -5 343q-1 0 -10 10l1 19q0 56 -22 100q0 5 50 5h11q61 -1 61 -6l2 -5q-33 -26 -33 -50 q-7 -56 -7 -65v-27q0 -2 1 -2l-3 -12l5 -79v-11q0 -10 -5 -18q3 -15 5 -38l-2 -10q3 -52 3 -104q0 -14 -1 -35q1 -10 1 -27q-3 -29 -3 -38q0 -2 2 -6l-2 -4q3 -27 3 -31q0 -8 -3 -29q5 -110 12 -110h1q8 2 30 43q6 0 23 60q7 8 52 162q46 142 91 323q2 0 2 2q0 1 -2 12 q8 56 8 65q0 6 -17 23q-1 4 -1 8q0 5 63 8h17q45 0 45 -12q0 -6 -31 -19q-12 -19 -26 -81q-6 -15 -68 -252l-121 -392q-23 -62 -45 -156q4 -19 24 -79q51 -174 116 -324q0 -5 21 -52q42 -110 66 -187q27 -30 27 -36q0 -12 -35 -12h-24q-38 8 -47 12l-2 13q21 22 21 46 q-25 82 -113 297q-41 111 -59 147l-6 9h-1q-7 0 -16 -61q0 -20 1 -20q-1 -18 -1 -30v-18q0 -97 -9 -169q1 -10 1 -12q-3 -7 -6 -54q6 0 8 -23l-2 -21q15 -87 34 -87v-2q0 -15 -10 -15q-16 7 -19 7h-17q-33 -4 -36 -4h-4q-39 3 -39 16z" />
<glyph unicode="L" horiz-adv-x="358" d="M64 1540v8l8 4q58 2 92 4q42 -4 42 -14v-2q-43 -44 -48 -54q-8 -26 -8 -48h2l-6 -1410q0 -2 2 -2l-2 -4v-8q0 -7 2 -10l-2 -12q0 -13 18 -24q11 -1 22 -1q82 0 92 57l4 2q18 0 18 -54q-2 -10 -2 -12q2 -15 2 -34q0 -7 -6 -12l-4 2q-140 -2 -158 -16h-4q-56 0 -56 58 q9 0 20 1460q-4 0 -4 4v6q0 60 -24 112z" />
<glyph unicode="M" horiz-adv-x="670" d="M28 -79q15 26 42 56q9 18 17 149q0 2 -2 2q1 3 3 7q0 79 2 124l2 63q0 2 -2 2l2 4l6 176q0 2 -2 2q0 2 2 2l3 252h-2q0 2 2 2q3 284 3 411q0 101 -2 101l3 4v29q0 112 -28 155l-23 27q0 19 170 19h18q9 -5 10 -9q-43 -47 -46 -54l-7 -22q0 -23 1 -164v-4l-3 -22 q9 -1 56 -313t48 -337q-4 -9 -4 -13q10 -20 19 -65q9 -11 14 -12q21 0 32 57q112 653 119 855q-2 4 -2 7q2 3 3 8q-6 67 -36 68q-9 6 -16 17q1 9 80 9q47 0 123 -3q7 -1 12 -7q-1 -14 -44 -41q-19 -26 -20 -62v-13l1 -1246q22 -114 38 -137q14 -24 16 -43q0 -8 -36 -12 l-123 -7q-7 3 -7 7v2q0 11 40 68q19 39 21 81v5q-6 212 -6 373q0 112 3 199q0 1 -1 13q0 2 2 2l-1 27l1 35q1 23 3 36v28q0 46 1 163h-2q0 3 2 3q1 18 1 32q0 65 -15 66h-6q-12 -55 -20 -95q-3 0 -3 -20q-2 -19 -3 -31v-2l-98 -642q-7 -50 -8 -75q3 -12 40 -51 q-1 -15 -73 -19h-14q-2 0 -2 -2q-13 4 -69 12q-5 11 -6 11q38 50 38 72v4q0 53 -54 372q-55 323 -55 336h-6q-13 -4 -21 -491q-2 -95 -2 -173q0 -323 28 -360q1 0 6 -7q-8 -14 -70 -14h-16q-77 2 -77 13z" />
<glyph unicode="N" horiz-adv-x="453" d="M30 1530q2 3 2 6q18 0 84.5 -4t67.5 -4q-26 -26 -26 -31q-14 -37 -22 -77q2 -16 2 -29v-3q16 -24 16 -83q10 0 24 -111q12 -71 18 -132q11 -62 20 -66l-2 -19v-8q7 -69 12 -80q-2 -4 -2 -6q10 -54 18 -133q-2 -17 -2 -21q10 -34 10 -69h2l-2 -4v-21q0 -2 2 -2l-2 -4v-5 q12 -37 18 -144l6 -23l-2 -8q5 -15 10 -15h2q17 0 20 136q0 10 2 33q0 1 -2 1q2 10 4 43q0 2 -2 2l2 9q0 12 4 158l-2 4q2 3 2 7v18q0 1 -2 1q0 2 2 2l-6 254q-2 4 -2 6t2 2q-6 152 -10 202l2 4q0 117 -18 163q-9 18 -30 50v4l140 -3q-22 -45 -22 -63v-10q0 -44 -2 -494.5 t-8 -456.5l4 -7q-6 -36 -10 -98v-42q0 -11 -2 -31q2 -4 2 -6q-12 -100 -20 -209q-2 0 -2 -8v-2q0 -2 2 -2q-4 -12 -4 -15q2 -20 2 -23q0 -19 -6 -44q17 -106 40 -106q8 -8 8 -10v-1q0 -7 -20 -12q-33 10 -48 12l-14 -2q-40 3 -50 3v-1q-5 0 -10 9q26 56 26 69v19l-42 356 l-32 317l2 9q-3 46 -16 46h-2q-10 -7 -10 -44h2l-2 -4v-27q0 -1 2 -1l-2 -4v-4q0 -12 2 -12l-2 -19v-44q0 -12 -8 -35q0 -2 2 -5q-2 -10 -2 -12q2 -14 2 -15l-2 -8q0 -4 2 -8q-2 -60 -6 -105l2 -10q-4 -36 -6 -113l2 -10q0 -2 -2 -6q0 -5 2 -13q0 -13 -2 -42q2 -98 4 -133 l-2 -11q0 -68 46 -123v-6q-3 -8 -14 -8q-21 2 -24 2l-4 -2q-97 6 -98 18q-2 0 -2 2v1q20 19 38 75q-2 36 -2 60v6q0 6 -2 9l2 12v6q0 18 -2 36l2 10l-4 69q2 13 2 21q0 17 -2 38q3 50 4 60l-2 9l14 598q0 15 -2 40l2 4q-2 17 -2 21q-2 183 -8 280q0 2 2 6q-3 209 -24 209 q-4 11 -30 29q0 2 -2 6z" />
<glyph unicode="O" horiz-adv-x="450" d="M52 264q2 3 2 10l-2 18l2 10q0 1 -2 26q2 45 2 56q0 2 -2 2l2 10q0 19 2 78q0 2 -2 2l2 10v48q0 31 10 112q0 5 -2 8q20 293 80 740q14 60 32 100h-4v2l66 72q32 24 40 24q4 -2 8 -2h2q2 0 2 2q44 -16 60 -50q28 -74 28 -146l-2 -10l12 -94l-2 -10q8 -33 14 -98v-16 q0 -4 -4 -20h2l-2 -4v-16l-6 -50l2 -18q-7 -110 -10 -124q2 -14 2 -22v-8q0 -10 -4 -24q4 -19 4 -30v-4q0 -60 10 -180q0 -124 -42 -438q-22 -162 -50 -252q-45 -124 -100 -124q-50 9 -80 36q-58 52 -58 120q0 2 -2 6q2 11 2 18q-10 55 -10 144l2 12zM116 110 q7 -149 22 -172q19 -38 40 -38q26 10 54 78q30 90 46 212q26 218 30 234v14l14 146h-2q0 2 2 2q2 50 2 80v6q0 23 -10 214q2 91 8 150h-2l2 4v22q0 2 -2 2l2 4v74q0 7 -2 18q0 2 2 2q-2 20 -2 30v10q0 60 -4 76q2 4 2 8q-8 97 -34 162q-18 30 -30 36h-4q-31 -24 -54 -222 q-18 -172 -22 -190q0 -2 2 -2q-18 -122 -34 -296h2q-8 -34 -14 -166v-12q-8 -15 -12 -296q0 -13 -2 -30q2 -11 2 -22q-2 -44 -2 -48q0 -2 2 -2l-2 -10v-38q0 -8 2 -22q-2 -3 -2 -10q0 -2 2 -2q0 -2 -2 -6z" />
<glyph unicode="P" horiz-adv-x="458" d="M40 -158q29 30 44 99q4 8 4 22l1 44q0 10 -4 10q0 4 2 4l-2 114q2 4 2 6l-3 38q0 2 2 6l-2 80l2 12l-2 4l2 10q-1 12 -4 12q0 2 2 6q-1 34 -1 52q0 5 3 16q-2 8 -2 14l2 12l-3 34l2 12q0 5 -2 16l2 10q-2 35 -3 38l2 12q0 23 -7 30v2q5 7 8 30q-4 8 -4 14q0 4 2 4l-1 14 q0 17 -1 60l2 10l-2 12l2 12q-1 14 -1 24q0 14 2 24q-1 19 -1 38v26q0 7 3 18q-2 3 -2 10q0 5 2 16q-1 9 -1 18v14q0 2 -2 2q2 4 2 6q0 12 -2 32q0 2 2 6q-1 14 -1 22v28l-1 12q2 3 2 10v12q0 2 -2 2l2 4l1 28q0 13 -2 30q2 8 2 14q0 2 -2 2l2 10l1 22q0 2 -2 2l2 4l-2 24 q0 2 3 12q-2 8 -2 14q0 4 2 4l-2 14l1 42l-2 12q2 4 2 6q-1 46 -3 46q2 3 2 10q-3 61 -6 78l2 4q-7 91 -16 129l2 4l-11 72l74 6q-2 -10 -2 -18q1 -4 4 -4l30 6q5 0 8 -2q14 1 22 1h4q41 -6 67 -33q26 -31 40 -53q47 -55 71 -127q37 -93 37 -164v-27q0 -6 -2 -13q1 -7 1 -14 v-43q0 -2 2 -2l-2 -4l-1 -20q0 -2 2 -2q-3 -8 -7 -53h2q-35 -177 -66 -231q-42 -97 -117 -188q-22 -30 -71 -83q-1 -5 -3 -8q2 -17 2 -28v-12q0 -2 2 -2q-2 -4 -2 -6v-9q0 -10 1 -25l-2 -10q2 -8 2 -14l-3 -10q3 -27 4 -32l-2 -8q0 -11 3 -50l-2 -10q1 -14 1 -16 q-2 -11 -2 -16q0 -2 2 -2l-2 -10v-12q0 -5 2 -8q-3 -4 -3 -6q0 -14 4 -52l-3 -8q2 -18 2 -30v-4q0 -2 2 -2l-2 -4l-1 -62v-5q0 -6 1 -13l-2 -4l3 -48l-2 -8v-3q0 -92 60 -144q9 0 15 -13v-6q0 -10 -176 -24q-12 4 -12 8v6zM138 1528l7 -48l-2 -10q9 -52 12 -120l-3 -10 q4 -30 6 -30l-2 -4l-1 -20q0 -2 2 -2l-2 -4q1 -50 3 -50l-4 -38q3 -43 3 -62q0 -5 -2 -8q1 -14 1 -22v-20q0 -13 -3 -26q2 -30 4 -30l-2 -10l-1 -16q0 -18 2 -40q-2 -7 -3 -18l2 -4q0 -2 -2 -6l3 -46q-2 -8 -2 -14q0 -4 2 -4l-2 -14l-1 -26q0 -12 -2 -32l4 -8q-3 -14 -3 -16 q2 -14 2 -16q-2 -11 -2 -12v-3q0 -28 15 -39h2q23 0 37 29q68 98 106 230q28 113 28 156q0 2 -2 2l3 10v14q0 2 -2 2l2 4v2q0 12 -1 30q0 2 2 6v12q0 156 -73 269q-23 46 -63 71q-13 14 -32 15h-16l-20 -18v-6z" />
<glyph unicode="Q" horiz-adv-x="357" d="M19 1049q0 114 60 308q67 164 150 212q101 -3 102 -23l-1 -13l2 -27q0 -2 7 -45q-3 -20 -42 -1505l1 -30q2 -25 52 -86l1 -6q-12 -4 -17 -5q-10 0 -54.5 -1.5t-66.5 -4.5q-8 2 -8 5v4q35 64 35 101v6q0 2 -2 11l25 683q-81 12 -140 64q0 5 -18 26q-22 27 -64 157 q-15 58 -18 103l-3 40q-1 12 -1 26zM89 1019q5 -50 7 -84q3 -33 59 -180q14 -26 32 -26h3q0 -4 18 -4h14l11 1q29 2 34 383q1 79 1 142q0 239 -15 240h-3q-31 -2 -76 -66q-6 -4 -48 -137q-37 -136 -37 -229q0 -15 1 -29q-1 0 -1 -5v-6z" />
<glyph unicode="R" horiz-adv-x="464" d="M11 -90q0 7 32 65q16 51 21 76q11 334 25 535l-2 14q0 2 2 18q0 55 5.5 418.5t5.5 499.5q-56 22 -56 33q0 9 34 13q44 4 69 3q19 0 25 -2q19 3 32 3h14q84 0 156 -118q13 0 39 -98q14 -25 21 -143q0 -108 -7 -119l2 -16q0 -127 -85 -329q-77 -161 -128 -255 q-17 -23 -17 -37v-2q12 -81 142 -422q27 -85 44 -89q44 -35 44 -37v-7q-1 -7 -63 -10q-38 -2 -55 -2q-10 0 -12 1h-25l-2 11q11 27 11 37v7q0 9 -34 131l-103 277l5 -70q-7 -55 -11 -223h2l-2 -4v-23q31 -106 59 -120q11 0 14 -13q-2 -10 -14 -10l-170 -4h-9q-3 0 -9 9v2z M170 717q0 -62 11 -62q45 34 46 48q51 97 92 216q37 134 37 276v57q0 3 -3 3l3 4q0 54 -32 161q-46 94 -122 111h-2q-21 0 -30 -814z" />
<glyph unicode="S" horiz-adv-x="453" d="M36 1144q2 18 2 30h-2q12 120 40 201q83 167 170 192q11 0 42 11q4 -2 6 -2q21 4 28 4h26q50 -8 50 -22q0 -13 2 -15q-3 -126 -14 -126q-7 -29 -10 -29q0 73 -36 121q-18 16 -26 16q-69 0 -128 -95q-37 -49 -54 -123q-15 -46 -24 -161v-42q1 -61 6 -73l-2 -11v-6 q12 -141 28 -203q31 -90 84 -199q36 -59 70 -198q30 -140 30 -253q0 -60 -20 -144q-8 -29 -58 -112q-66 -86 -110 -86t-76 40q-10 14 -10 22q0 4 6 15q0 9 -2 24q2 31 2 53l-2 16q3 9 6 9h8q5 -4 30 -69q10 -25 16 -26h4q51 0 82 66q46 84 46 119q10 42 10 68v33q0 2 -2 2 l2 5v35q-14 167 -44 254q0 26 -112 255q-53 133 -58 280q-4 43 -6 124z" />
<glyph unicode="T" horiz-adv-x="437" d="M30 1538v1q0 16 27 20h44q4 0 8 2q4 -2 264 -13l28 1q14 0 15 -25l-1 -21q2 -11 3 -17v-5q0 -25 -11 -28q-7 0 -29 34q-32 27 -70 27h-3q-54 -6 -54 -23q-3 -26 -4 -797q-1 -137 -1 -250q0 -526 6 -545q-3 -11 -14 -11q-27 12 -35 19q-14 16 -19 802t-25 785 q-14 18 -30 18q-53 -2 -53 -31v-1q-9 -17 -15 -46l-8 -2q-11 0 -23 106z" />
<glyph unicode="U" d="M14 1505q5 5 26 7l126 -10l26 1q3 0 6 -9q-4 -11 -44 -42q-16 -22 -16 -64v-5q0 -3 3 -7l-13 -1187q0 -9 3 -23q-1 -11 -1 -19v-7l3 -30l-2 -11q3 -80 43 -125q14 -8 20 -8h12q26 1 52 62q30 97 30 192v22q59 1021 59 1067v1q3 23 3 31v2q0 5 -7 19l2 19q-3 66 -42 100 q-2 3 -2 8q6 5 10 5l20 -2l128 -6q6 -8 6 -12q-22 -34 -43 -90l2 -37q-12 -3 -12 -57v-16q-53 -984 -65 -1159q-17 -115 -49 -158q-35 -62 -62 -63q-84 19 -85 34q-16 7 -34 50q-45 45 -50 177l-2 51v7q0 78 15 791v172h-2l1 5v17q-1 13 -3 32q0 2 1 6q-3 28 -3 45l-2 50 q0 9 1 24q-6 20 -13 81q-13 42 -42 56q-4 0 -4 13z" />
<glyph unicode="V" horiz-adv-x="421" d="M0 1532q0 21 81 21q36 0 87 -4q4 0 4 -9q0 -10 -29 -43q-25 -61 -25 -106v-3q9 -99 11 -107l-2 -9q0 -7 4 -37l-1 -5q7 -90 8 -134l-2 -9q4 -12 4 -42l-1 -9q5 -13 7 -97q2 0 2 -3q-3 0 -6 -7q4 0 10 -58q-2 0 -5 -7v-11q8 -25 8 -37q-3 -8 -3 -14v-5q5 -9 6 -21v-25 l-1 -14q3 -8 3 -14q-1 -29 -1 -30l2 -12l-5 -14l4 -20q-2 -4 -2 -12q6 -1 6 -19l1 -18q0 -13 2 -33q-5 -11 -5 -16q5 -11 6 -18v-26q0 -18 -3 -42q2 -9 4 -9l-2 -11l2 -70q0 -3 5 -7h4q13 0 23 161q23 219 42 453q1 0 1 5v6l-1 5q4 44 16 246l11 84q-2 108 -28 178 q-2 0 -7 11v5q0 11 85 16q14 1 26 1q59 0 60 -21q-53 -68 -64 -110q-10 -1 -15 -77q0 -2 2 -2q-8 -26 -15 -154q-2 0 -2 -2t2 -2l-1 -12v-16q0 -60 -15 -179l2 -14h-1q0 -2 1 -2q-12 -183 -29 -344q-3 0 -3 -7q0 -28 -27 -307v-5q0 -29 -11 -69q-3 0 -4 -35q1 0 5 -4 q-20 -252 -26 -351q2 -9 3 -16l-6 -5h-3q-49 13 -49 43q0 17 -21 79q0 13 -6 27l2 10q-9 106 -11 174v16l-2 14q2 4 2 9q-1 8 -2 11l2 68q0 2 -2 2l2 9q-1 69 -1 141v73q-2 4 -2 11q2 13 2 21q0 2 -1 2h-1l1 12v5q-15 369 -51 864q-5 49 -51 131q-9 0 -10 7z" />
<glyph unicode="W" horiz-adv-x="1000" d="M20 1538v6q0 16 180 18q10 0 16 -10q0 -5 -44 -44q-19 -27 -24 -56l102 -1074v-2l-2 -20l10 -106l6 -4q26 38 26 80l126 798q4 48 36 242q4 7 12 84q0 58 -60 58q-10 5 -10 12q20 18 192 20l4 2q10 0 14 -14q0 -4 -44 -38q-22 -19 -22 -32q0 -134 86 -1028q8 -30 24 -132 l4 -2h2q26 0 34 44q12 112 142 1070h-2q4 7 6 36q0 64 -54 110v6q0 3 10 8q190 -9 190 -20l-44 -30q-40 -56 -40 -114l-140 -1004q0 -11 -46 -328l-6 -54q29 -96 50 -96q20 -17 20 -24q0 -6 -57 -6q-18 0 -41 1q-98 2 -98 13q0 5 30 30q24 42 24 62q-12 64 -40 314l-96 798 h-4q-12 0 -26 -86q-10 -53 -16 -96l2 -4q-12 -34 -86 -496l-30 -200q-22 -165 -22 -178q0 -4 2 -8l-2 -4q2 -21 4 -24q-2 -4 -2 -6q0 -20 44 -76v-4q0 -3 -8 -8q-7 0 -162 2q-17 -2 -26 -2q-8 8 -8 12q0 5 22 22q44 49 44 96q2 0 2 4q-38 311 -85 869.5t-59 558.5 q-30 44 -60 54z" />
<glyph unicode="X" horiz-adv-x="562" d="M18 1494q1 15 117 32h14q9 0 10 -17q-34 -17 -34 -44v-2q-1 -1 -1 -7v-10q0 -5 1 -8q-1 -3 -1 -8q9 -22 18 -57q5 0 17 -52q6 -7 27 -106q60 -238 65 -247q15 -25 19 -25h3q15 1 29 70l93 362q16 62 21 98q-1 25 -44 31q-1 8 -3 8q2 8 7 12q66 8 66 14h4q6 0 22 -8l59 2 q5 -2 5 -11v-2q0 -4 -39 -29q-38 -45 -51 -136q-47 -175 -118 -471q-19 -69 -19 -76q0 -5 -1 -16q1 -51 14 -77q9 -73 16 -73l-1 -9q27 -101 37 -172q9 -28 42 -186q22 -104 30 -127l-1 -4v-4q20 -146 33 -146q24 -38 55 -61q0 -3 2 -6q0 -5 -7 -10q-1 0 -20 1 q-40 -6 -55 -6h-3q-48 6 -48 15v6q25 28 25 59v2q-32 226 -117 593q-15 69 -26 69l-8 -1q-11 0 -29 -102q-45 -161 -100 -454q-3 -3 -18 -90q1 -53 32 -68l7 -12l1 -6q-2 -7 -14 -8q-5 0 -13 2q-37 -6 -37 -10q-18 1 -33 1q-14 0 -25 -1h-4q-2 0 -7 9q38 62 38 94v1 q0 2 -2 2q10 14 28 113q48 244 74 356q31 122 69 300l-1 17q-1 54 -78 327q-49 202 -83 299q-12 35 -56 60z" />
<glyph unicode="Y" horiz-adv-x="716" d="M30 1497v2q0 24 131 35l3 2q2 0 8 -9q0 -5 -26 -41l-4 -15v-8q1 -12 5 -24l-1 -4v-15q21 -83 58 -206q59 -214 74 -261q27 -123 67 -255l10 -9h7q19 14 27 47q10 53 16 112q27 139 61 265q30 165 63 288l22 115q-1 20 -40 48l-2 4v2q6 15 19 15q34 2 60 2q81 0 87 -21 q-3 -9 -39 -30q-16 -14 -28 -52q-7 0 -34 -146q-20 -75 -67 -300q-25 -78 -55 -257q0 -8 -62 -281v-2q4 -15 4 -17q-16 -19 -24 -60l-126 -560q0 -10 2 -21q-5 -32 -5 -51l10 -58v-2q0 -5 -17 -9l-6 2q-9 0 -15 -2q-26 2 -47 2h-29q-8 0 -10 7v4q57 62 57 105 q82 350 149 660v9q-6 44 -58 257q-7 12 -52 191q-49 189 -96 336q-30 80 -52 165q-28 35 -45 41z" />
<glyph unicode="Z" horiz-adv-x="585" d="M73 -44q0 6 18 45q0 8 19 65q0 19 22 74q24 68 49 196q45 151 45 153q16 67 85 313q13 75 46 175q0 7 49 163q34 142 56 222v5q0 5 -1 9q3 10 3 36q0 36 -27 47h-6q-127 -20 -267 -34q-11 0 -27 -40q-13 -59 -19 -59h-5q-6 3 -9 66q-3 0 -4 15v25q0 41 46 41q31 6 76 6 l3 3l3 -3q120 12 209 30h54q8 0 16 31l13 7q36 -14 36 -27q-94 -368 -119 -457q-55 -168 -101 -362l-62 -225q-6 -28 -46 -167q-21 -95 -58 -221q-9 -39 -9 -45v-9q3 -31 37 -31q0 -5 25 -7l15 2q38 0 76 -4l3 2q28 -4 37 -4v2q8 -5 24 -5v3l3 -3h3q22 0 50 41q8 20 12 61 l3 2h1q3 0 6 -20q-1 -72 -1 -104q1 -7 1 -16q-19 -11 -47 -20l-34 9q-15 -2 -24 -2h-30l-18 2v-2q-5 4 -9 4h-20q-24 0 -49 3q-28 -1 -103 -27q-6 -14 -15 -14h-3q-31 29 -31 50z" />
<glyph unicode="a" horiz-adv-x="400" d="M-23 -76q0 5 16 30q14 20 28 124q2 14 2 22q-2 0 -2 2q14 0 18 136q2 0 2 24h-2q4 19 6 64h-2l2 4v8q6 53 6 66l-2 4q2 16 8 118q0 2 -2 2l12 146h-2q24 219 76 770q0 46 -50 74q0 4 -2 4q0 12 65 12q37 0 93 -4q5 -10 6 -10q0 -6 -36 -38q-12 -16 -12 -50 q16 -181 62 -550q2 -35 8 -84q-2 -3 -2 -8q10 -65 20 -182l-2 -14q1 0 6 -6l-2 -8q13 -104 20 -134l-2 -4v-10q6 -17 10 -60l-2 -10l4 -10l-4 -10q13 -21 24 -114q4 -14 22 -126q-2 -4 -2 -6q12 -39 24 -118q25 -50 42 -50v-2q0 -12 -56 -12q-34 0 -88 4q34 58 34 126 q-12 91 -40 238q0 19 -22 152q-11 22 -62 22h-36q-11 0 -44 -38l-18 -70q0 -8 4 -8q-2 -32 -8 -36q0 -3 6 -6l-6 -14q4 -8 4 -14q-6 -72 -12 -88q4 -1 4 -4l-12 -122q2 -51 2 -60q13 -48 44 -74v-6q0 -6 -49 -6q-30 0 -77 2h-12q-3 0 -10 10v2zM117 550q0 -42 12 -42h12v-10 q1 -4 4 -4q92 5 92 22q6 13 6 28v18l-46 438q-12 80 -20 88h-2q-10 0 -20 -100q-9 -124 -16 -124l2 -12q-18 -201 -22 -214l2 -8q-4 -20 -4 -36v-44z" />
<glyph unicode="b" horiz-adv-x="395" d="M61 1482q5 10 20 10l20 -2q20 4 36 4h12q63 0 80 -52q19 -51 66 -140q70 -227 70 -304q0 -2 -2 -6q2 -17 2 -28v-6q0 -20 -2 -50l2 -12q-2 -10 -2 -20l2 -4q-3 -14 -10 -88q-31 -175 -84 -246q-7 -16 -46 -60v-6q98 -90 98 -112q20 -22 30 -110v-2l-2 -12v-18q0 -7 2 -10 q-9 -98 -30 -132q-30 -49 -74 -84l-60 -42q-15 -22 -26 -22q-54 0 -54 30h-2l2 4v8q0 2 -2 2q8 11 8 24l2 420q0 18 2 40q-2 8 -2 14q0 5 2 8l-2 62q0 19 2 38q-2 11 -2 20q0 7 2 18l-6 134q2 14 2 22q-8 90 -8 644q0 2 -2 2l2 4v30q-14 18 -42 18q-4 7 -4 12zM165 956 q6 -120 10 -322v-2q0 -22 -4 -38q4 -34 20 -34h2q25 10 30 28q21 18 58 156q18 111 18 178l-2 10l2 12q0 136 -38 242q-29 108 -48 138q-5 0 -24 38q-2 0 -6 2q-16 -18 -16 -60q0 -2 2 -2l-2 -10v-236q-2 -33 -2 -64q2 -25 2 -26zM171 56q1 0 22 -10h2q54 23 72 66 q20 39 20 120q0 93 -24 106q0 18 -30 46q-33 36 -46 36q-9 0 -14 -20v-290q-2 -24 -2 -54z" />
<glyph unicode="c" horiz-adv-x="388" d="M42 890q2 10 2 24q0 236 80 438q28 50 66 92q0 9 30 14q64 45 80 94q3 0 12 4q20 0 24 -120q-13 -82 -28 -82h-6q0 7 -14 28q0 35 -32 40h-2q-62 -38 -102 -186q-42 -170 -42 -304v-8q0 -8 -2 -22q2 -4 2 -6q-2 -17 -2 -20q0 -4 2 -22l-2 -20q2 -34 2 -66q0 -7 2 -10 l-2 -12v-76q0 -12 2 -32l-2 -4q2 -20 2 -32q0 -95 4 -130l-2 -4q4 -80 8 -124q-2 -14 -2 -16q13 -168 24 -244q11 -77 32 -104q10 -14 12 -14h8q28 0 56 54q11 42 22 42q15 0 24 -80q5 0 10 -72q0 -3 -8 -10q-13 0 -18 34q-12 9 -12 10q-37 -30 -54 -30q-62 0 -108 84 q-13 0 -38 198q-26 287 -26 680z" />
<glyph unicode="d" horiz-adv-x="364" d="M18 -63q11 14 18 144l16 1204q0 261 36 261q0 1 12 6q40 -10 40 -21q0 -4 24 -54q40 -81 40 -102q56 -198 88 -355q16 -69 16 -182q0 -448 -86 -709q-41 -128 -78 -169q-54 -71 -84 -71h-4q-38 23 -38 46v2zM92 71q4 0 8 -19h12q32 12 88 246q40 217 40 292q0 2 -2 2 q3 0 6 161l-2 4q2 0 4 50q-2 59 -4 59q0 2 2 2q0 85 -24 187q-14 76 -42 165l-34 84q0 21 -16 23q-10 -4 -32 -1202h2q-4 -19 -6 -54z" />
<glyph unicode="e" horiz-adv-x="302" d="M37 1351l2 12q0 4 -2 8v28q0 118 8 119q0 7 94 9q39 1 95 1h3q27 0 39 -15q-13 -106 -26 -106q-8 0 -22 47q-8 17 -34 16q-13 0 -30 -4q-53 -14 -58 -74q-3 -29 -4 -62l19 -758l1 -9q9 -77 50 -77h1h1q0 -2 10 -2q33 24 46 59q4 1 4 2q9 -3 10 -7q0 -9 -1 -86t-11 -77h-4 q-6 0 -17 36q-23 25 -45 25h-2q-47 -12 -46 -71v-2q-7 0 -11 -339q11 -40 58 -40h2h4q52 3 51 43v1q7 19 18 19q14 -8 17 -106q0 -12 -108 -16h-17h-16q-76 0 -77 18v2q11 16 11 378q0 133 -2 312q-6 668 -11 716z" />
<glyph unicode="f" horiz-adv-x="300" d="M45 1457q2 0 2 43v33l-2 4q4 19 68 19q46 0 124 -10h1q15 0 20 -23q-2 -95 -15 -96q-15 0 -33 54q-26 29 -35 29q-23 3 -31 3q-16 -1 -27 -54q0 -2 2 -6q-2 0 -2 -41q0 -50 3 -163v-4q0 -8 3 -20q-2 -2 -2 -32l2 -5q-2 -11 -2 -41q0 -2 2 -2l-1 -15v-9q1 -19 1 -97 q0 -129 -3 -419q4 -37 5 -60q1 -17 32 -31q3 -2 8 -2q58 4 68 37q8 28 13 29h4q4 0 11 -26v-80l3 -11v-8q0 -41 -10 -42q-3 0 -25 31l-29 18q-56 -3 -59 -36q-22 -75 -22 -141v-16q1 -17 5 -45q-3 -8 -3 -16v-4q0 -2 2 -2l-2 -11l1 -8q0 -2 2 -2q-2 -5 -2 -7q3 -98 3 -162 q0 -97 -7 -118l-4 -2h-6q-48 0 -50 45q1 32 1 67q0 117 -8 266q1 27 1 28l-3 4q-1 45 -1 126q0 187 5 566z" />
<glyph unicode="g" horiz-adv-x="337" d="M37 386q2 77 4 91l-4 32q2 8 2 17v2q0 2 -2 2l2 4v22q0 11 2 19q-2 11 -2 21v15q0 18 2 38l-2 8q2 29 2 49v19q0 2 -2 2q2 4 4 23q0 3 -2 7l4 38q-2 11 -2 17q0 1 2 12l-2 9q2 8 2 17q0 2 -2 2l2 4v19q0 9 2 24q-2 4 -2 6q2 12 2 17q0 2 -2 6l2 13v15q0 7 -2 19l4 15 q-2 18 -2 29v4q0 46 6 66l-2 11l8 72q-2 3 -2 8l16 112q7 23 16 70q21 72 74 163q15 9 18 9l10 -3q20 3 36 11q2 0 2 -2l24 2h28q18 0 18 -15v-10q0 -10 -2 -22l2 -10l-2 -15q0 -2 2 -2q-4 -70 -22 -70h-2q-15 6 -30 68q-11 6 -22 6q-32 0 -78 -207q-8 -44 -14 -100h2 q-2 -3 -4 -21q0 -2 2 -6l-2 -13v-8q0 -3 2 -3q-6 -17 -8 -40q2 -15 2 -17q-4 -28 -4 -55v-4q0 -6 2 -6q0 -3 -2 -7q-2 -69 -2 -108v-8q0 -9 -2 -23q0 -3 2 -3l-2 -10v-61q0 -3 2 -3q-4 -9 -6 -48l2 -5q-4 -10 -4 -16q0 -3 2 -7q-2 -11 -2 -19q0 -2 2 -6q-2 -9 -2 -15 q0 -8 2 -8l-2 -22v-67l2 -13q-4 -13 -4 -55v-2q0 -9 2 -24q-2 -3 -2 -10l2 -11q91 10 132 32h20q6 -5 30 -15l14 -12v-5q0 -2 -2 -2l2 -4v-6q-6 -9 -6 -19v-45l2 -13q-2 -3 -2 -8q0 -6 2 -15q-2 -18 -2 -32v-12q0 -2 2 -2l-2 -5v-17q0 -2 2 -2q-2 -2 -4 -25h2q-4 -11 -4 -23 q0 -3 2 -3l-10 -120l2 -4q-4 -10 -4 -19q0 -3 2 -7q-14 -120 -26 -120q0 -15 -42 -28q-16 0 -38 2q-4 -2 -6 -2q-55 13 -72 36q-12 17 -16 42q-29 63 -40 178q-4 70 -6 70l2 8q0 13 -4 43l2 8q-4 49 -4 55q2 18 2 28zM111 280l4 -38l-2 -8q14 -193 42 -252q0 -11 32 -11 q14 9 22 60q5 0 10 63l-2 4q8 55 10 94q0 2 -2 2q5 89 8 89l-2 25v36q0 10 2 21q-4 29 -4 36h-4l-62 -13q-52 -39 -52 -108z" />
<glyph unicode="h" horiz-adv-x="462" d="M46 1503q1 18 33 21q19 5 32 11l10 3q23 -3 32 -7l48 5q13 -7 14 -13q-46 -61 -47 -94h2l-3 -4v-12q0 -2 2 -2q0 -2 -2 -2q8 -179 8 -213v-10q0 -2 2 -2q-2 -4 -2 -6q0 -3 3 -18l-2 -10q2 -42 6 -66l-3 -6l5 -90l-2 -4q1 -28 3 -28l-2 -4q0 -10 1 -20l-2 -8l4 -50 q0 -2 -2 -2l2 -10l-1 -16q0 -2 2 -2l-2 -4l-2 -60q0 -7 1 -18l-2 -4q1 -11 1 -20v-8q0 -9 -2 -12l1 -80q-2 -8 -3 -18l13 -43q10 -20 31 -21q0 -2 2 -2q42 3 43 27l1 16q0 7 -2 18q0 2 2 2q-1 24 -1 92l3 6q-2 13 -2 22l2 58q1 8 3 22l-2 4q3 3 3 8l-2 14l3 12q0 2 -2 2 l2 10l1 40v3q0 2 -1 5q2 3 2 8l1 22q0 10 2 17q-1 11 -1 21q0 9 4 43l-2 1l2 3l1 28q0 9 2 22q-1 4 -1 8q2 8 2 14h-2l2 4v8q0 5 -1 10l2 8q-1 11 -1 12l2 14l-2 4q0 4 2 4l-1 24l2 54l-1 12q2 4 2 10l1 18q0 5 -2 8q2 4 2 8v8q0 2 -2 2l3 4q0 10 -2 20q0 4 2 4q1 15 1 28 q0 82 -22 103q-8 21 -23 31q1 20 51 20h10q0 2 16 3l12 -2q6 3 10 3h6l20 -8l52 6l8 -13q-4 -12 -32 -38q-17 -18 -29 -79l-8 -8q2 -20 2 -53q0 -22 -1 -49l-2 -46q0 -11 -3 -28l2 -4q-2 -8 -3 -14q0 -2 2 -6l-2 -12v-2q0 -2 2 -2l-3 -4q2 -14 2 -22l-2 -4q1 -4 1 -8 q0 -6 -2 -14q0 -2 1 -12q-3 -31 -3 -46q0 -2 2 -6q-5 -10 -5 -14q3 -15 3 -20l-2 -20h2l-3 -4v-6q0 -13 -3 -26l2 -12q-5 -21 -5 -22q2 -6 4 -6l-5 -34q1 -10 1 -12q-3 -31 -3 -46q0 -2 2 -6l-6 -52q2 -4 2 -6l-3 -12q0 -2 2 -6q-2 -8 -3 -14l2 -4q-2 -3 -2 -8q0 -10 4 -10 l-2 -4l-1 -22v-5q0 -6 1 -13q0 -2 -2 -2l1 -24l-3 -92l2 -12q-3 -3 -3 -10l2 -10q0 -4 -2 -4l1 -24l-2 -40q0 -8 -2 -22l2 -4q-3 -3 -3 -8v-4q0 -2 2 -2l-2 -4v-12q-1 -9 -3 -20q1 -5 1 -10v-4q0 -7 -2 -18q1 -14 1 -24q-3 -17 -3 -21l2 -1l-2 -3v-10l-3 -24h2q-4 -8 -5 -14 q2 -6 4 -6l-2 -8q-5 -69 -5 -84q0 -2 2 -2l-3 -10l-2 -80q0 -5 1 -8q-2 -4 -2 -8v-6q0 -2 2 -2q-2 -4 -2 -6v-5q0 -43 35 -70q4 -7 4 -11q-8 -7 -23 -11q-1 0 -12 3q-46 -1 -46 -3l-4 2q-25 -1 -30 -1q-19 4 -19 9q18 32 28 79l-3 8l2 12v4q0 2 -2 2l2 4l1 4q0 8 -2 8l2 14 l1 20q0 10 3 20q-2 19 -3 24q2 4 2 8v2q0 6 -2 6l2 10l1 22q1 16 4 42q0 2 -2 2l2 10l1 24l3 24h-2l2 4l2 50q0 8 2 22l-1 4l2 12q0 2 -2 2l2 4l1 14q0 2 -2 2l2 4l1 38v5q0 40 -32 60h-6q-42 0 -43 -26q-5 0 -11 -40l-2 -52q0 -2 2 -2l-2 -4v-4q-1 -13 -3 -26l2 -8l-3 -10 q4 -3 5 -48q-2 -3 -3 -12l2 -4q-2 -4 -2 -8v-2q0 -5 2 -8l-3 -4l4 -76q-2 -4 -3 -8l2 -8l-2 -8q0 -5 3 -30q0 -4 -2 -4q-1 -31 -1 -56q0 -100 19 -113q0 -4 19 -23v-8q0 -3 -12 -7q-22 3 -38 3l-12 1l-45 -7q-6 0 -9 15q16 62 16 73q-3 7 -3 10q0 5 2 8q-1 14 -1 22l1 20 q0 2 -2 2q0 2 2 2q-1 49 -4 78l3 8q-3 37 -4 128l1 30v4q0 9 -3 20l2 10v2q0 2 -1 2l2 14l1 18q0 5 -2 8q2 4 2 6v56l2 4q-2 4 -2 6q1 3 3 20l-2 4q3 8 3 14l-2 4q2 4 2 10l-1 12l2 10q0 2 -2 6q0 2 2 6q-1 17 -1 28q1 7 3 10l-2 12l1 34q0 2 -2 2l3 4v14q0 2 -2 2q2 4 2 6 l-1 20q0 2 2 6q-1 14 -1 22l1 16q0 5 -2 8q2 4 2 8q1 8 1 19q0 12 -1 27l2 14q-2 42 -4 42l4 12q-1 8 -4 8l3 10v6q0 2 -2 2l2 4l1 10q0 5 -2 8q2 4 2 6q0 10 -4 10l2 4l1 4q0 8 -2 18q0 2 2 2q-1 55 -5 87l2 4q-7 191 -10 224l3 6q-7 206 -15 207q-41 37 -41 39z" />
<glyph unicode="i" horiz-adv-x="255" d="M28 -84l34 70l2 1444h-2q4 6 6 22l-2 8l2 12q-7 37 -22 52q-14 10 -14 12q0 9 14 18h160q12 -5 12 -8v-4q0 -17 -50 -40q-19 0 -30 -78l2 -4q-4 -1400 -4 -1408v-18q0 -4 2 -8q-2 -3 -2 -8v-8q27 -40 44 -52v-8q-3 -8 -95 -8h-41q-9 0 -16 14z" />
<glyph unicode="j" horiz-adv-x="693" d="M46 226q1 8 19 10q7 -6 17 -7q5 0 16 1l14 -3q19 3 40 3q10 0 21 -1t15 -13q-1 -6 -29 -36q0 -7 -7 -42l2 -4q-2 -4 -3 -8l2 -10l-3 -6q-1 -18 -1 -34q0 -86 19 -88h6q41 23 78 195q6 0 41 168q1 12 4 25q0 2 -2 3q8 33 16 103l-2 4q3 11 3 18l1 10q0 4 -2 8q3 3 3 8v4 q0 2 -2 2l3 4v13q0 1 -1 1l2 4l3 45q1 11 3 18v20l2 36q0 2 -2 2l3 4v10q0 2 -2 2l3 4v2q0 8 -1 16q0 2 2 6v22l1 16q0 5 -1 8l2 4q1 49 3 78l-1 10q0 2 2 2q1 32 1 55q0 35 -2 49q3 4 3 6q-1 8 -4 8q1 2 3 2q0 7 -2 37q2 3 2 5q0 26 -2 29l3 3q0 11 -2 35q2 3 3 5l-5 133 l2 4q0 42 -3 48l3 4v10q0 4 -1 6l2 8q-1 44 -3 44q3 4 3 6q0 30 -4 31l2 3l2 32q-6 39 -31 41q-62 -8 -79 -15q-16 -47 -23 -48h-4q-15 1 -17 27q-11 64 -28 106q0 6 15 13q50 -27 62 -28h6q102 14 142 24l28 -4q162 0 164 20q13 6 26 35q7 3 12 3h2q13 -1 13 -35v-14 l-3 -10q1 -11 1 -18q-3 -11 -3 -12q3 -11 4 -34q-4 -17 -16 -17h-2q-2 0 -30 24q-49 -4 -74 -4h-14l-18 1q-48 -16 -50 -56q-4 -1 -5 -4v-26l-2 -8l2 -32l-3 -8l4 -36l-3 -12l2 -32l-3 -8l3 -47q-3 -3 -3 -7l2 -9q-1 -2 -3 -5l4 -87q0 -2 -2 -2l2 -32l-2 -4v-5q0 -8 1 -25 q-2 -4 -2 -6q0 -4 2 -30l-2 -4v-11q0 -15 2 -15l-2 -4q0 -50 2 -50l-2 -4l-1 -8q0 -6 2 -6q0 -1 -3 -8q-1 -51 -2 -60l2 -4q-2 -3 -3 -8l-1 -24v-1q0 -1 1 -1l-2 -4l-1 -12q0 -2 2 -2l-5 -12q4 -5 4 -32q0 -2 -2 -2q1 -22 2 -28l-6 -24q1 -8 4 -8l-3 -12q-1 -37 -3 -66v-6 q-1 -8 -4 -22l2 -4q-2 -3 -3 -8v-2q0 -4 2 -8q-5 -8 -5 -11q2 -7 4 -7l-3 -4v-4q-1 -15 -5 -41l2 -4q-2 -4 -6 -24q0 -2 2 -2q-6 -31 -11 -78h2q-4 -17 -8 -25q0 -2 1 -6q-14 -85 -29 -127l2 -4q-33 -107 -48 -179q-63 -120 -90 -120h-1l-10 -1q-2 0 -6 2h-20q-25 8 -55 44 q-20 40 -20 77v10q0 3 3 20l-1 8l2 8l-2 28l3 12l-2 4q3 4 3 6v3q0 22 -16 52v1q0 15 -29 43q0 4 -2 5z" />
<glyph unicode="k" d="M40 -63q0 8 27 48q7 0 12 106q3 0 3 21q0 2 -2 2q12 140 12 253l-1 19q0 2 1 17q-4 163 -7 417q0 9 1 38q-1 10 -1 27q0 14 1 25q-1 25 -1 49v40q0 12 -2 14q2 12 2 19q0 66 -5 343q-1 0 -10 10l1 19q0 56 -22 100q0 5 50 5h11q61 -1 61 -6l2 -5q-33 -26 -33 -50 q-7 -56 -7 -65v-27q0 -2 1 -2l-3 -12l5 -79v-11q0 -10 -5 -18q3 -15 5 -38l-2 -10q3 -52 3 -104q0 -14 -1 -35q1 -10 1 -27q-3 -29 -3 -38q0 -2 2 -6l-2 -4q3 -27 3 -31q0 -8 -3 -29q5 -110 12 -110h1q8 2 30 43q6 0 23 60q7 8 52 162q46 142 91 323q2 0 2 2q0 1 -2 12 q8 56 8 65q0 6 -17 23q-1 4 -1 8q0 5 63 8h17q45 0 45 -12q0 -6 -31 -19q-12 -19 -26 -81q-6 -15 -68 -252l-121 -392q-23 -62 -45 -156q4 -19 24 -79q51 -174 116 -324q0 -5 21 -52q42 -110 66 -187q27 -30 27 -36q0 -12 -35 -12h-24q-38 8 -47 12l-2 13q21 22 21 46 q-25 82 -113 297q-41 111 -59 147l-6 9h-1q-7 0 -16 -61q0 -20 1 -20q-1 -18 -1 -30v-18q0 -97 -9 -169q1 -10 1 -12q-3 -7 -6 -54q6 0 8 -23l-2 -21q15 -87 34 -87v-2q0 -15 -10 -15q-16 7 -19 7h-17q-33 -4 -36 -4h-4q-39 3 -39 16z" />
<glyph unicode="l" horiz-adv-x="358" d="M64 1540v8l8 4q58 2 92 4q42 -4 42 -14v-2q-43 -44 -48 -54q-8 -26 -8 -48h2l-6 -1410q0 -2 2 -2l-2 -4v-8q0 -7 2 -10l-2 -12q0 -13 18 -24q11 -1 22 -1q82 0 92 57l4 2q18 0 18 -54q-2 -10 -2 -12q2 -15 2 -34q0 -7 -6 -12l-4 2q-140 -2 -158 -16h-4q-56 0 -56 58 q9 0 20 1460q-4 0 -4 4v6q0 60 -24 112z" />
<glyph unicode="m" horiz-adv-x="670" d="M28 -79q15 26 42 56q9 18 17 149q0 2 -2 2q1 3 3 7q0 79 2 124l2 63q0 2 -2 2l2 4l6 176q0 2 -2 2q0 2 2 2l3 252h-2q0 2 2 2q3 284 3 411q0 101 -2 101l3 4v29q0 112 -28 155l-23 27q0 19 170 19h18q9 -5 10 -9q-43 -47 -46 -54l-7 -22q0 -23 1 -164v-4l-3 -22 q9 -1 56 -313t48 -337q-4 -9 -4 -13q10 -20 19 -65q9 -11 14 -12q21 0 32 57q112 653 119 855q-2 4 -2 7q2 3 3 8q-6 67 -36 68q-9 6 -16 17q1 9 80 9q47 0 123 -3q7 -1 12 -7q-1 -14 -44 -41q-19 -26 -20 -62v-13l1 -1246q22 -114 38 -137q14 -24 16 -43q0 -8 -36 -12 l-123 -7q-7 3 -7 7v2q0 11 40 68q19 39 21 81v5q-6 212 -6 373q0 112 3 199q0 1 -1 13q0 2 2 2l-1 27l1 35q1 23 3 36v28q0 46 1 163h-2q0 3 2 3q1 18 1 32q0 65 -15 66h-6q-12 -55 -20 -95q-3 0 -3 -20q-2 -19 -3 -31v-2l-98 -642q-7 -50 -8 -75q3 -12 40 -51 q-1 -15 -73 -19h-14q-2 0 -2 -2q-13 4 -69 12q-5 11 -6 11q38 50 38 72v4q0 53 -54 372q-55 323 -55 336h-6q-13 -4 -21 -491q-2 -95 -2 -173q0 -323 28 -360q1 0 6 -7q-8 -14 -70 -14h-16q-77 2 -77 13z" />
<glyph unicode="n" horiz-adv-x="453" d="M30 1530q2 3 2 6q18 0 84.5 -4t67.5 -4q-26 -26 -26 -31q-14 -37 -22 -77q2 -16 2 -29v-3q16 -24 16 -83q10 0 24 -111q12 -71 18 -132q11 -62 20 -66l-2 -19v-8q7 -69 12 -80q-2 -4 -2 -6q10 -54 18 -133q-2 -17 -2 -21q10 -34 10 -69h2l-2 -4v-21q0 -2 2 -2l-2 -4v-5 q12 -37 18 -144l6 -23l-2 -8q5 -15 10 -15h2q17 0 20 136q0 10 2 33q0 1 -2 1q2 10 4 43q0 2 -2 2l2 9q0 12 4 158l-2 4q2 3 2 7v18q0 1 -2 1q0 2 2 2l-6 254q-2 4 -2 6t2 2q-6 152 -10 202l2 4q0 117 -18 163q-9 18 -30 50v4l140 -3q-22 -45 -22 -63v-10q0 -44 -2 -494.5 t-8 -456.5l4 -7q-6 -36 -10 -98v-42q0 -11 -2 -31q2 -4 2 -6q-12 -100 -20 -209q-2 0 -2 -8v-2q0 -2 2 -2q-4 -12 -4 -15q2 -20 2 -23q0 -19 -6 -44q17 -106 40 -106q8 -8 8 -10v-1q0 -7 -20 -12q-33 10 -48 12l-14 -2q-40 3 -50 3v-1q-5 0 -10 9q26 56 26 69v19l-42 356 l-32 317l2 9q-3 46 -16 46h-2q-10 -7 -10 -44h2l-2 -4v-27q0 -1 2 -1l-2 -4v-4q0 -12 2 -12l-2 -19v-44q0 -12 -8 -35q0 -2 2 -5q-2 -10 -2 -12q2 -14 2 -15l-2 -8q0 -4 2 -8q-2 -60 -6 -105l2 -10q-4 -36 -6 -113l2 -10q0 -2 -2 -6q0 -5 2 -13q0 -13 -2 -42q2 -98 4 -133 l-2 -11q0 -68 46 -123v-6q-3 -8 -14 -8q-21 2 -24 2l-4 -2q-97 6 -98 18q-2 0 -2 2v1q20 19 38 75q-2 36 -2 60v6q0 6 -2 9l2 12v6q0 18 -2 36l2 10l-4 69q2 13 2 21q0 17 -2 38q3 50 4 60l-2 9l14 598q0 15 -2 40l2 4q-2 17 -2 21q-2 183 -8 280q0 2 2 6q-3 209 -24 209 q-4 11 -30 29q0 2 -2 6z" />
<glyph unicode="o" horiz-adv-x="450" d="M52 264q2 3 2 10l-2 18l2 10q0 1 -2 26q2 45 2 56q0 2 -2 2l2 10q0 19 2 78q0 2 -2 2l2 10v48q0 31 10 112q0 5 -2 8q20 293 80 740q14 60 32 100h-4v2l66 72q32 24 40 24q4 -2 8 -2h2q2 0 2 2q44 -16 60 -50q28 -74 28 -146l-2 -10l12 -94l-2 -10q8 -33 14 -98v-16 q0 -4 -4 -20h2l-2 -4v-16l-6 -50l2 -18q-7 -110 -10 -124q2 -14 2 -22v-8q0 -10 -4 -24q4 -19 4 -30v-4q0 -60 10 -180q0 -124 -42 -438q-22 -162 -50 -252q-45 -124 -100 -124q-50 9 -80 36q-58 52 -58 120q0 2 -2 6q2 11 2 18q-10 55 -10 144l2 12zM116 110 q7 -149 22 -172q19 -38 40 -38q26 10 54 78q30 90 46 212q26 218 30 234v14l14 146h-2q0 2 2 2q2 50 2 80v6q0 23 -10 214q2 91 8 150h-2l2 4v22q0 2 -2 2l2 4v74q0 7 -2 18q0 2 2 2q-2 20 -2 30v10q0 60 -4 76q2 4 2 8q-8 97 -34 162q-18 30 -30 36h-4q-31 -24 -54 -222 q-18 -172 -22 -190q0 -2 2 -2q-18 -122 -34 -296h2q-8 -34 -14 -166v-12q-8 -15 -12 -296q0 -13 -2 -30q2 -11 2 -22q-2 -44 -2 -48q0 -2 2 -2l-2 -10v-38q0 -8 2 -22q-2 -3 -2 -10q0 -2 2 -2q0 -2 -2 -6z" />
<glyph unicode="p" horiz-adv-x="458" d="M40 -158q29 30 44 99q4 8 4 22l1 44q0 10 -4 10q0 4 2 4l-2 114q2 4 2 6l-3 38q0 2 2 6l-2 80l2 12l-2 4l2 10q-1 12 -4 12q0 2 2 6q-1 34 -1 52q0 5 3 16q-2 8 -2 14l2 12l-3 34l2 12q0 5 -2 16l2 10q-2 35 -3 38l2 12q0 23 -7 30v2q5 7 8 30q-4 8 -4 14q0 4 2 4l-1 14 q0 17 -1 60l2 10l-2 12l2 12q-1 14 -1 24q0 14 2 24q-1 19 -1 38v26q0 7 3 18q-2 3 -2 10q0 5 2 16q-1 9 -1 18v14q0 2 -2 2q2 4 2 6q0 12 -2 32q0 2 2 6q-1 14 -1 22v28l-1 12q2 3 2 10v12q0 2 -2 2l2 4l1 28q0 13 -2 30q2 8 2 14q0 2 -2 2l2 10l1 22q0 2 -2 2l2 4l-2 24 q0 2 3 12q-2 8 -2 14q0 4 2 4l-2 14l1 42l-2 12q2 4 2 6q-1 46 -3 46q2 3 2 10q-3 61 -6 78l2 4q-7 91 -16 129l2 4l-11 72l74 6q-2 -10 -2 -18q1 -4 4 -4l30 6q5 0 8 -2q14 1 22 1h4q41 -6 67 -33q26 -31 40 -53q47 -55 71 -127q37 -93 37 -164v-27q0 -6 -2 -13q1 -7 1 -14 v-43q0 -2 2 -2l-2 -4l-1 -20q0 -2 2 -2q-3 -8 -7 -53h2q-35 -177 -66 -231q-42 -97 -117 -188q-22 -30 -71 -83q-1 -5 -3 -8q2 -17 2 -28v-12q0 -2 2 -2q-2 -4 -2 -6v-9q0 -10 1 -25l-2 -10q2 -8 2 -14l-3 -10q3 -27 4 -32l-2 -8q0 -11 3 -50l-2 -10q1 -14 1 -16 q-2 -11 -2 -16q0 -2 2 -2l-2 -10v-12q0 -5 2 -8q-3 -4 -3 -6q0 -14 4 -52l-3 -8q2 -18 2 -30v-4q0 -2 2 -2l-2 -4l-1 -62v-5q0 -6 1 -13l-2 -4l3 -48l-2 -8v-3q0 -92 60 -144q9 0 15 -13v-6q0 -10 -176 -24q-12 4 -12 8v6zM138 1528l7 -48l-2 -10q9 -52 12 -120l-3 -10 q4 -30 6 -30l-2 -4l-1 -20q0 -2 2 -2l-2 -4q1 -50 3 -50l-4 -38q3 -43 3 -62q0 -5 -2 -8q1 -14 1 -22v-20q0 -13 -3 -26q2 -30 4 -30l-2 -10l-1 -16q0 -18 2 -40q-2 -7 -3 -18l2 -4q0 -2 -2 -6l3 -46q-2 -8 -2 -14q0 -4 2 -4l-2 -14l-1 -26q0 -12 -2 -32l4 -8q-3 -14 -3 -16 q2 -14 2 -16q-2 -11 -2 -12v-3q0 -28 15 -39h2q23 0 37 29q68 98 106 230q28 113 28 156q0 2 -2 2l3 10v14q0 2 -2 2l2 4v2q0 12 -1 30q0 2 2 6v12q0 156 -73 269q-23 46 -63 71q-13 14 -32 15h-16l-20 -18v-6z" />
<glyph unicode="q" horiz-adv-x="357" d="M19 1049q0 114 60 308q67 164 150 212q101 -3 102 -23l-1 -13l2 -27q0 -2 7 -45q-3 -20 -42 -1505l1 -30q2 -25 52 -86l1 -6q-12 -4 -17 -5q-10 0 -54.5 -1.5t-66.5 -4.5q-8 2 -8 5v4q35 64 35 101v6q0 2 -2 11l25 683q-81 12 -140 64q0 5 -18 26q-22 27 -64 157 q-15 58 -18 103l-3 40q-1 12 -1 26zM89 1019q5 -50 7 -84q3 -33 59 -180q14 -26 32 -26h3q0 -4 18 -4h14l11 1q29 2 34 383q1 79 1 142q0 239 -15 240h-3q-31 -2 -76 -66q-6 -4 -48 -137q-37 -136 -37 -229q0 -15 1 -29q-1 0 -1 -5v-6z" />
<glyph unicode="r" horiz-adv-x="464" d="M11 -90q0 7 32 65q16 51 21 76q11 334 25 535l-2 14q0 2 2 18q0 55 5.5 418.5t5.5 499.5q-56 22 -56 33q0 9 34 13q44 4 69 3q19 0 25 -2q19 3 32 3h14q84 0 156 -118q13 0 39 -98q14 -25 21 -143q0 -108 -7 -119l2 -16q0 -127 -85 -329q-77 -161 -128 -255 q-17 -23 -17 -37v-2q12 -81 142 -422q27 -85 44 -89q44 -35 44 -37v-7q-1 -7 -63 -10q-38 -2 -55 -2q-10 0 -12 1h-25l-2 11q11 27 11 37v7q0 9 -34 131l-103 277l5 -70q-7 -55 -11 -223h2l-2 -4v-23q31 -106 59 -120q11 0 14 -13q-2 -10 -14 -10l-170 -4h-9q-3 0 -9 9v2z M170 717q0 -62 11 -62q45 34 46 48q51 97 92 216q37 134 37 276v57q0 3 -3 3l3 4q0 54 -32 161q-46 94 -122 111h-2q-21 0 -30 -814z" />
<glyph unicode="s" horiz-adv-x="453" d="M36 1144q2 18 2 30h-2q12 120 40 201q83 167 170 192q11 0 42 11q4 -2 6 -2q21 4 28 4h26q50 -8 50 -22q0 -13 2 -15q-3 -126 -14 -126q-7 -29 -10 -29q0 73 -36 121q-18 16 -26 16q-69 0 -128 -95q-37 -49 -54 -123q-15 -46 -24 -161v-42q1 -61 6 -73l-2 -11v-6 q12 -141 28 -203q31 -90 84 -199q36 -59 70 -198q30 -140 30 -253q0 -60 -20 -144q-8 -29 -58 -112q-66 -86 -110 -86t-76 40q-10 14 -10 22q0 4 6 15q0 9 -2 24q2 31 2 53l-2 16q3 9 6 9h8q5 -4 30 -69q10 -25 16 -26h4q51 0 82 66q46 84 46 119q10 42 10 68v33q0 2 -2 2 l2 5v35q-14 167 -44 254q0 26 -112 255q-53 133 -58 280q-4 43 -6 124z" />
<glyph unicode="t" horiz-adv-x="437" d="M30 1538v1q0 16 27 20h44q4 0 8 2q4 -2 264 -13l28 1q14 0 15 -25l-1 -21q2 -11 3 -17v-5q0 -25 -11 -28q-7 0 -29 34q-32 27 -70 27h-3q-54 -6 -54 -23q-3 -26 -4 -797q-1 -137 -1 -250q0 -526 6 -545q-3 -11 -14 -11q-27 12 -35 19q-14 16 -19 802t-25 785 q-14 18 -30 18q-53 -2 -53 -31v-1q-9 -17 -15 -46l-8 -2q-11 0 -23 106z" />
<glyph unicode="u" d="M14 1505q5 5 26 7l126 -10l26 1q3 0 6 -9q-4 -11 -44 -42q-16 -22 -16 -64v-5q0 -3 3 -7l-13 -1187q0 -9 3 -23q-1 -11 -1 -19v-7l3 -30l-2 -11q3 -80 43 -125q14 -8 20 -8h12q26 1 52 62q30 97 30 192v22q59 1021 59 1067v1q3 23 3 31v2q0 5 -7 19l2 19q-3 66 -42 100 q-2 3 -2 8q6 5 10 5l20 -2l128 -6q6 -8 6 -12q-22 -34 -43 -90l2 -37q-12 -3 -12 -57v-16q-53 -984 -65 -1159q-17 -115 -49 -158q-35 -62 -62 -63q-84 19 -85 34q-16 7 -34 50q-45 45 -50 177l-2 51v7q0 78 15 791v172h-2l1 5v17q-1 13 -3 32q0 2 1 6q-3 28 -3 45l-2 50 q0 9 1 24q-6 20 -13 81q-13 42 -42 56q-4 0 -4 13z" />
<glyph unicode="v" horiz-adv-x="421" d="M0 1532q0 21 81 21q36 0 87 -4q4 0 4 -9q0 -10 -29 -43q-25 -61 -25 -106v-3q9 -99 11 -107l-2 -9q0 -7 4 -37l-1 -5q7 -90 8 -134l-2 -9q4 -12 4 -42l-1 -9q5 -13 7 -97q2 0 2 -3q-3 0 -6 -7q4 0 10 -58q-2 0 -5 -7v-11q8 -25 8 -37q-3 -8 -3 -14v-5q5 -9 6 -21v-25 l-1 -14q3 -8 3 -14q-1 -29 -1 -30l2 -12l-5 -14l4 -20q-2 -4 -2 -12q6 -1 6 -19l1 -18q0 -13 2 -33q-5 -11 -5 -16q5 -11 6 -18v-26q0 -18 -3 -42q2 -9 4 -9l-2 -11l2 -70q0 -3 5 -7h4q13 0 23 161q23 219 42 453q1 0 1 5v6l-1 5q4 44 16 246l11 84q-2 108 -28 178 q-2 0 -7 11v5q0 11 85 16q14 1 26 1q59 0 60 -21q-53 -68 -64 -110q-10 -1 -15 -77q0 -2 2 -2q-8 -26 -15 -154q-2 0 -2 -2t2 -2l-1 -12v-16q0 -60 -15 -179l2 -14h-1q0 -2 1 -2q-12 -183 -29 -344q-3 0 -3 -7q0 -28 -27 -307v-5q0 -29 -11 -69q-3 0 -4 -35q1 0 5 -4 q-20 -252 -26 -351q2 -9 3 -16l-6 -5h-3q-49 13 -49 43q0 17 -21 79q0 13 -6 27l2 10q-9 106 -11 174v16l-2 14q2 4 2 9q-1 8 -2 11l2 68q0 2 -2 2l2 9q-1 69 -1 141v73q-2 4 -2 11q2 13 2 21q0 2 -1 2h-1l1 12v5q-15 369 -51 864q-5 49 -51 131q-9 0 -10 7z" />
<glyph unicode="w" horiz-adv-x="1000" d="M20 1538v6q0 16 180 18q10 0 16 -10q0 -5 -44 -44q-19 -27 -24 -56l102 -1074v-2l-2 -20l10 -106l6 -4q26 38 26 80l126 798q4 48 36 242q4 7 12 84q0 58 -60 58q-10 5 -10 12q20 18 192 20l4 2q10 0 14 -14q0 -4 -44 -38q-22 -19 -22 -32q0 -134 86 -1028q8 -30 24 -132 l4 -2h2q26 0 34 44q12 112 142 1070h-2q4 7 6 36q0 64 -54 110v6q0 3 10 8q190 -9 190 -20l-44 -30q-40 -56 -40 -114l-140 -1004q0 -11 -46 -328l-6 -54q29 -96 50 -96q20 -17 20 -24q0 -6 -57 -6q-18 0 -41 1q-98 2 -98 13q0 5 30 30q24 42 24 62q-12 64 -40 314l-96 798 h-4q-12 0 -26 -86q-10 -53 -16 -96l2 -4q-12 -34 -86 -496l-30 -200q-22 -165 -22 -178q0 -4 2 -8l-2 -4q2 -21 4 -24q-2 -4 -2 -6q0 -20 44 -76v-4q0 -3 -8 -8q-7 0 -162 2q-17 -2 -26 -2q-8 8 -8 12q0 5 22 22q44 49 44 96q2 0 2 4q-38 311 -85 869.5t-59 558.5 q-30 44 -60 54z" />
<glyph unicode="x" horiz-adv-x="562" d="M18 1494q1 15 117 32h14q9 0 10 -17q-34 -17 -34 -44v-2q-1 -1 -1 -7v-10q0 -5 1 -8q-1 -3 -1 -8q9 -22 18 -57q5 0 17 -52q6 -7 27 -106q60 -238 65 -247q15 -25 19 -25h3q15 1 29 70l93 362q16 62 21 98q-1 25 -44 31q-1 8 -3 8q2 8 7 12q66 8 66 14h4q6 0 22 -8l59 2 q5 -2 5 -11v-2q0 -4 -39 -29q-38 -45 -51 -136q-47 -175 -118 -471q-19 -69 -19 -76q0 -5 -1 -16q1 -51 14 -77q9 -73 16 -73l-1 -9q27 -101 37 -172q9 -28 42 -186q22 -104 30 -127l-1 -4v-4q20 -146 33 -146q24 -38 55 -61q0 -3 2 -6q0 -5 -7 -10q-1 0 -20 1 q-40 -6 -55 -6h-3q-48 6 -48 15v6q25 28 25 59v2q-32 226 -117 593q-15 69 -26 69l-8 -1q-11 0 -29 -102q-45 -161 -100 -454q-3 -3 -18 -90q1 -53 32 -68l7 -12l1 -6q-2 -7 -14 -8q-5 0 -13 2q-37 -6 -37 -10q-18 1 -33 1q-14 0 -25 -1h-4q-2 0 -7 9q38 62 38 94v1 q0 2 -2 2q10 14 28 113q48 244 74 356q31 122 69 300l-1 17q-1 54 -78 327q-49 202 -83 299q-12 35 -56 60z" />
<glyph unicode="y" horiz-adv-x="716" d="M30 1497v2q0 24 131 35l3 2q2 0 8 -9q0 -5 -26 -41l-4 -15v-8q1 -12 5 -24l-1 -4v-15q21 -83 58 -206q59 -214 74 -261q27 -123 67 -255l10 -9h7q19 14 27 47q10 53 16 112q27 139 61 265q30 165 63 288l22 115q-1 20 -40 48l-2 4v2q6 15 19 15q34 2 60 2q81 0 87 -21 q-3 -9 -39 -30q-16 -14 -28 -52q-7 0 -34 -146q-20 -75 -67 -300q-25 -78 -55 -257q0 -8 -62 -281v-2q4 -15 4 -17q-16 -19 -24 -60l-126 -560q0 -10 2 -21q-5 -32 -5 -51l10 -58v-2q0 -5 -17 -9l-6 2q-9 0 -15 -2q-26 2 -47 2h-29q-8 0 -10 7v4q57 62 57 105 q82 350 149 660v9q-6 44 -58 257q-7 12 -52 191q-49 189 -96 336q-30 80 -52 165q-28 35 -45 41z" />
<glyph unicode="z" horiz-adv-x="585" d="M73 -44q0 6 18 45q0 8 19 65q0 19 22 74q24 68 49 196q45 151 45 153q16 67 85 313q13 75 46 175q0 7 49 163q34 142 56 222v5q0 5 -1 9q3 10 3 36q0 36 -27 47h-6q-127 -20 -267 -34q-11 0 -27 -40q-13 -59 -19 -59h-5q-6 3 -9 66q-3 0 -4 15v25q0 41 46 41q31 6 76 6 l3 3l3 -3q120 12 209 30h54q8 0 16 31l13 7q36 -14 36 -27q-94 -368 -119 -457q-55 -168 -101 -362l-62 -225q-6 -28 -46 -167q-21 -95 -58 -221q-9 -39 -9 -45v-9q3 -31 37 -31q0 -5 25 -7l15 2q38 0 76 -4l3 2q28 -4 37 -4v2q8 -5 24 -5v3l3 -3h3q22 0 50 41q8 20 12 61 l3 2h1q3 0 6 -20q-1 -72 -1 -104q1 -7 1 -16q-19 -11 -47 -20l-34 9q-15 -2 -24 -2h-30l-18 2v-2q-5 4 -9 4h-20q-24 0 -49 3q-28 -1 -103 -27q-6 -14 -15 -14h-3q-31 29 -31 50z" />
<glyph unicode="&#x2000;" horiz-adv-x="847" />
<glyph unicode="&#x2001;" horiz-adv-x="1694" />
<glyph unicode="&#x2002;" horiz-adv-x="847" />
<glyph unicode="&#x2003;" horiz-adv-x="1694" />
<glyph unicode="&#x2004;" horiz-adv-x="564" />
<glyph unicode="&#x2005;" horiz-adv-x="423" />
<glyph unicode="&#x2006;" horiz-adv-x="282" />
<glyph unicode="&#x2007;" horiz-adv-x="282" />
<glyph unicode="&#x2008;" horiz-adv-x="211" />
<glyph unicode="&#x2009;" horiz-adv-x="338" />
<glyph unicode="&#x200a;" horiz-adv-x="94" />
<glyph unicode="&#x202f;" horiz-adv-x="338" />
<glyph unicode="&#x205f;" horiz-adv-x="423" />
<glyph unicode="&#xe000;" horiz-adv-x="1540" d="M0 0v1540h1540v-1540h-1540z" />
</font>
</defs>
</svg>
